<svg width="375" height="442" viewBox="0 0 375 442" fill="none" xmlns="http://www.w3.org/2000/svg">
<g clip-path="url(#clip0)">
<path d="M180.679 291.119C185.012 294.267 190.878 294.267 195.21 291.119L275.934 232.469C280.267 229.322 282.079 223.743 280.425 218.65L249.59 123.753C247.936 118.66 243.19 115.212 237.835 115.212H138.054C132.699 115.212 127.953 118.66 126.299 123.753L95.4647 218.65C93.8099 223.743 95.6227 229.322 99.9547 232.469L180.679 291.119Z" stroke="url(#paint0_linear)" stroke-width="12.4871"/>
<path opacity="0.3" d="M429.243 211.073C434.597 211.046 439.325 207.574 440.954 202.473L471.306 107.42C472.935 102.319 471.094 96.7494 466.746 93.624L385.725 35.3844C381.377 32.259 375.511 32.2888 371.195 35.4582L290.769 94.517C286.453 97.6864 284.668 103.274 286.349 108.359L317.664 203.099C319.345 208.183 324.108 211.607 329.463 211.58L429.243 211.073Z" stroke="url(#paint1_linear)" stroke-width="12.4871"/>
<path opacity="0.3" d="M413.547 185.316C416.99 185.298 420.029 183.066 421.076 179.787L441.96 114.388C443.007 111.108 441.823 107.528 439.028 105.519L383.283 65.448C380.488 63.4388 376.717 63.458 373.942 65.4954L318.606 106.13C315.832 108.167 314.685 111.76 315.765 115.028L337.311 180.212C338.391 183.481 341.453 185.682 344.896 185.664L413.547 185.316Z" stroke="url(#paint2_linear)" stroke-width="1.3243"/>
<path opacity="0.3" d="M-56.2909 216.371C-61.6455 216.343 -66.3737 212.871 -68.0026 207.77L-98.3547 112.717C-99.9835 107.616 -98.1425 102.047 -93.7945 98.9213L-12.7732 40.6818C-8.42521 37.5564 -2.55921 37.5861 1.75684 40.7555L82.1829 99.8144C86.499 102.984 88.2833 108.572 86.6028 113.656L55.2875 208.396C53.607 213.48 48.8438 216.904 43.4891 216.877L-56.2909 216.371Z" stroke="url(#paint3_linear)" stroke-width="12.4871"/>
<path opacity="0.3" d="M-42.6032 193.346C-46.0454 193.329 -49.085 191.097 -50.1321 187.818L-72.2281 118.621C-73.2752 115.341 -72.0917 111.761 -69.2965 109.752L-10.3141 67.354C-7.51893 65.3448 -3.74792 65.3639 -0.97332 67.4014L57.5758 110.395C60.3504 112.433 61.4975 116.025 60.4172 119.294L37.62 188.263C36.5397 191.532 33.4777 193.733 30.0354 193.715L-42.6032 193.346Z" stroke="url(#paint4_linear)" stroke-width="1.3243"/>
<path opacity="0.3" d="M360.379 439.736C365.733 439.709 370.462 436.237 372.09 431.136L402.443 336.083C404.071 330.982 402.23 325.412 397.882 322.287L316.861 264.047C312.513 260.922 306.647 260.952 302.331 264.121L221.905 323.18C217.589 326.349 215.805 331.938 217.485 337.022L248.8 431.762C250.481 436.846 255.244 440.27 260.599 440.243L360.379 439.736Z" stroke="url(#paint5_linear)" stroke-width="12.4871"/>
<path opacity="0.3" d="M344.942 414.329C348.384 414.312 351.423 412.08 352.47 408.801L373.509 342.914C374.556 339.635 373.373 336.054 370.578 334.045L314.417 293.676C311.622 291.667 307.851 291.686 305.076 293.723L249.329 334.66C246.554 336.698 245.407 340.29 246.487 343.559L268.194 409.228C269.274 412.497 272.336 414.698 275.778 414.68L344.942 414.329Z" stroke="url(#paint6_linear)" stroke-width="1.3243"/>
<path opacity="0.3" d="M17.8703 445.033C12.5156 445.006 7.7874 441.534 6.15856 436.433L-24.1936 341.38C-25.8224 336.279 -23.9814 330.71 -19.6334 327.584L61.3879 269.345C65.7359 266.219 71.6019 266.249 75.918 269.418L156.344 328.477C160.66 331.647 162.444 337.235 160.764 342.319L129.449 437.059C127.768 442.143 123.005 445.567 117.65 445.54L17.8703 445.033Z" stroke="url(#paint7_linear)" stroke-width="12.4871"/>
<path opacity="0.3" d="M31.345 422.3C27.9027 422.283 24.8631 420.051 23.816 416.771L1.59112 347.17C0.544006 343.891 1.72751 340.311 4.52265 338.301L63.8493 295.656C66.6445 293.647 70.4155 293.666 73.1901 295.704L132.081 338.949C134.855 340.986 136.003 344.579 134.922 347.847L111.992 417.219C110.912 420.487 107.85 422.688 104.407 422.671L31.345 422.3Z" stroke="url(#paint8_linear)" stroke-width="1.3243"/>
<path d="M187.945 296.398L283.2 227.191L246.815 115.212H129.074L92.6896 227.191L187.945 296.398Z" stroke="url(#paint9_linear)" stroke-width="1.3243"/>
<path opacity="0.7" d="M183.275 237.189C186.06 239.212 189.831 239.212 192.616 237.189L225.468 213.32C228.252 211.297 229.418 207.71 228.354 204.436L215.806 165.817C214.742 162.543 211.691 160.326 208.249 160.326H167.642C164.199 160.326 161.148 162.543 160.085 165.817L147.536 204.436C146.473 207.71 147.638 211.297 150.423 213.32L183.275 237.189Z" fill="url(#paint10_linear)"/>
<path d="M187.185 178.321C187.499 177.903 188.166 178.125 188.166 178.649V199.938H172.041C171.591 199.938 171.335 199.424 171.605 199.065L187.185 178.321Z" fill="white"/>
<path d="M189.147 212.789C188.832 213.208 188.166 212.986 188.166 212.462V191.173H204.29C204.74 191.173 204.996 191.686 204.726 192.046L189.147 212.789Z" fill="white"/>
<g filter="url(#filter0_d)">
<circle cx="133.054" cy="119.497" r="27.0554" fill="url(#paint11_linear)"/>
</g>
<g filter="url(#filter1_d)">
<circle cx="243.356" cy="119.497" r="27.0554" fill="url(#paint12_linear)"/>
</g>
<g filter="url(#filter2_d)">
<circle cx="280.112" cy="220.404" r="27.0554" fill="url(#paint13_linear)"/>
</g>
<g opacity="0.2" filter="url(#filter3_f)">
<path d="M287.311 209.921L285.38 207.906L285.115 209.023C283.02 208.902 285.367 213.657 283.307 216.08C281.131 218.641 275.25 218.251 275.894 220.316L274.748 220.478L277.162 222.084C279.288 223.542 283.063 222.234 285.787 219.029C288.563 215.764 289.22 211.74 287.311 209.921Z" fill="#FD7A17"/>
<path fill-rule="evenodd" clip-rule="evenodd" d="M283.16 211.695C282.074 211.867 280.803 212.635 279.769 213.852C278.676 215.138 278.119 216.604 278.192 217.731C277.536 217.835 276.947 217.721 276.519 217.357C275.381 216.39 275.804 214.023 277.464 212.071C279.123 210.119 281.391 209.321 282.528 210.287C282.916 210.618 283.123 211.111 283.16 211.695Z" fill="#FD7618"/>
<path fill-rule="evenodd" clip-rule="evenodd" d="M274.471 220.27C276.512 222.005 280.559 220.597 283.511 217.125C286.462 213.653 287.2 209.432 285.16 207.697C283.119 205.962 279.072 207.37 276.12 210.842C273.169 214.314 272.43 218.535 274.471 220.27ZM276.519 217.357C277.656 218.324 279.923 217.525 281.583 215.573C283.242 213.621 283.665 211.255 282.528 210.288C281.39 209.321 279.123 210.119 277.464 212.071C275.804 214.024 275.381 216.39 276.519 217.357Z" fill="#FD8714"/>
</g>
<path d="M287.245 209.984L287.245 209.985L287.248 209.987C288.172 210.868 288.485 212.293 288.216 213.918C287.946 215.541 287.096 217.348 285.718 218.97C284.364 220.562 282.753 221.68 281.22 222.219C279.686 222.759 278.244 222.715 277.214 222.009L277.213 222.008L274.999 220.535L275.907 220.406L276.014 220.391L275.981 220.289C275.907 220.051 275.929 219.857 276.019 219.689C276.111 219.518 276.281 219.364 276.521 219.222C277.004 218.935 277.734 218.713 278.568 218.472C278.632 218.453 278.696 218.435 278.76 218.416C279.538 218.192 280.388 217.947 281.176 217.616C282.029 217.258 282.82 216.795 283.377 216.139C283.908 215.515 284.151 214.745 284.255 213.95C284.359 213.156 284.323 212.33 284.289 211.593L284.288 211.563C284.255 210.832 284.226 210.2 284.328 209.754C284.379 209.53 284.46 209.366 284.581 209.261C284.698 209.157 284.865 209.1 285.11 209.114L285.186 209.119L285.204 209.044L285.43 208.09L287.245 209.984Z" fill="url(#paint14_linear)" stroke="#FD8813" stroke-width="0.182725"/>
<mask id="path-20-outside-1" maskUnits="userSpaceOnUse" x="273.672" y="207.153" width="11.073" height="12.9464" fill="black">
<rect fill="white" x="273.672" y="207.153" width="11.073" height="12.9464"/>
<path fill-rule="evenodd" clip-rule="evenodd" d="M283.16 211.695C282.074 211.867 280.803 212.635 279.769 213.852C278.676 215.138 278.119 216.604 278.192 217.731C277.536 217.835 276.947 217.721 276.519 217.357C275.381 216.39 275.804 214.023 277.464 212.071C279.123 210.119 281.391 209.321 282.528 210.287C282.916 210.618 283.123 211.111 283.16 211.695Z"/>
</mask>
<path fill-rule="evenodd" clip-rule="evenodd" d="M283.16 211.695C282.074 211.867 280.803 212.635 279.769 213.852C278.676 215.138 278.119 216.604 278.192 217.731C277.536 217.835 276.947 217.721 276.519 217.357C275.381 216.39 275.804 214.023 277.464 212.071C279.123 210.119 281.391 209.321 282.528 210.287C282.916 210.618 283.123 211.111 283.16 211.695Z" fill="url(#paint15_linear)"/>
<path d="M279.769 213.852L279.631 213.735L279.631 213.735L279.769 213.852ZM283.16 211.695L283.189 211.874L283.352 211.848L283.341 211.683L283.16 211.695ZM278.192 217.731L278.22 217.91L278.383 217.884L278.373 217.719L278.192 217.731ZM276.519 217.357L276.636 217.218L276.519 217.357ZM277.464 212.071L277.325 211.954L277.464 212.071ZM282.528 210.287L282.646 210.149L282.646 210.149L282.528 210.287ZM279.907 213.97C280.922 212.776 282.157 212.037 283.189 211.874L283.132 211.515C281.991 211.696 280.684 212.495 279.631 213.735L279.907 213.97ZM278.373 217.719C278.304 216.654 278.834 215.233 279.907 213.97L279.631 213.735C278.518 215.044 277.934 216.554 278.01 217.742L278.373 217.719ZM278.163 217.551C277.542 217.65 277.013 217.538 276.636 217.218L276.401 217.495C276.881 217.903 277.529 218.02 278.22 217.91L278.163 217.551ZM276.636 217.218C276.137 216.794 275.956 216.04 276.121 215.115C276.285 214.196 276.789 213.145 277.602 212.189L277.325 211.954C276.479 212.95 275.941 214.058 275.764 215.052C275.587 216.04 275.763 216.952 276.401 217.495L276.636 217.218ZM277.602 212.189C278.415 211.233 279.371 210.566 280.252 210.256C281.138 209.944 281.911 210.002 282.41 210.426L282.646 210.149C282.007 209.606 281.078 209.58 280.131 209.914C279.18 210.249 278.172 210.958 277.325 211.954L277.602 212.189ZM282.41 210.426C282.752 210.716 282.944 211.158 282.979 211.706L283.341 211.683C283.302 211.064 283.081 210.519 282.646 210.149L282.41 210.426Z" fill="#FD8813" mask="url(#path-20-outside-1)"/>
<mask id="path-22-inside-2" fill="white">
<path fill-rule="evenodd" clip-rule="evenodd" d="M274.471 220.27C276.512 222.005 280.559 220.597 283.511 217.125C286.462 213.653 287.2 209.432 285.16 207.697C283.119 205.962 279.072 207.37 276.12 210.842C273.169 214.314 272.43 218.535 274.471 220.27ZM276.519 217.357C277.656 218.324 279.923 217.525 281.583 215.573C283.242 213.621 283.665 211.255 282.528 210.288C281.39 209.321 279.123 210.119 277.464 212.071C275.804 214.024 275.381 216.39 276.519 217.357Z"/>
</mask>
<g filter="url(#filter4_ii)">
<path fill-rule="evenodd" clip-rule="evenodd" d="M274.471 220.27C276.512 222.005 280.559 220.597 283.511 217.125C286.462 213.653 287.2 209.432 285.16 207.697C283.119 205.962 279.072 207.37 276.12 210.842C273.169 214.314 272.43 218.535 274.471 220.27ZM276.519 217.357C277.656 218.324 279.923 217.525 281.583 215.573C283.242 213.621 283.665 211.255 282.528 210.288C281.39 209.321 279.123 210.119 277.464 212.071C275.804 214.024 275.381 216.39 276.519 217.357Z" fill="url(#paint16_linear)"/>
</g>
<path d="M283.511 217.125L283.372 217.006L283.511 217.125ZM285.16 207.697L285.278 207.558L285.278 207.558L285.16 207.697ZM276.12 210.842L276.259 210.961L276.12 210.842ZM281.583 215.573L281.722 215.691L281.583 215.573ZM276.519 217.357L276.4 217.496L276.519 217.357ZM282.528 210.288L282.646 210.148L282.528 210.288ZM277.464 212.071L277.324 211.953L277.464 212.071ZM283.372 217.006C281.913 218.722 280.19 219.921 278.59 220.478C276.985 221.036 275.541 220.939 274.59 220.131L274.353 220.409C275.443 221.336 277.043 221.403 278.71 220.823C280.381 220.241 282.157 219 283.65 217.243L283.372 217.006ZM285.041 207.836C285.992 208.644 286.32 210.054 286.027 211.728C285.736 213.397 284.83 215.291 283.372 217.006L283.65 217.243C285.143 215.487 286.082 213.534 286.387 211.791C286.691 210.052 286.368 208.484 285.278 207.558L285.041 207.836ZM276.259 210.961C277.718 209.245 279.441 208.046 281.041 207.489C282.646 206.931 284.09 207.028 285.041 207.836L285.278 207.558C284.188 206.631 282.588 206.564 280.921 207.144C279.25 207.726 277.474 208.967 275.981 210.724L276.259 210.961ZM274.59 220.131C273.639 219.323 273.311 217.913 273.604 216.239C273.895 214.57 274.801 212.676 276.259 210.961L275.981 210.724C274.488 212.48 273.548 214.433 273.244 216.176C272.94 217.915 273.263 219.483 274.353 220.409L274.59 220.131ZM281.444 215.455C280.631 216.411 279.675 217.077 278.794 217.387C277.908 217.699 277.136 217.642 276.637 217.218L276.4 217.496C277.039 218.039 277.969 218.066 278.916 217.732C279.868 217.397 280.875 216.688 281.722 215.691L281.444 215.455ZM282.41 210.427C282.908 210.851 283.09 211.604 282.924 212.529C282.76 213.448 282.256 214.499 281.444 215.455L281.722 215.691C282.569 214.695 283.106 213.587 283.284 212.593C283.461 211.605 283.285 210.691 282.646 210.148L282.41 210.427ZM277.603 212.19C278.415 211.234 279.371 210.567 280.252 210.257C281.138 209.945 281.911 210.003 282.41 210.427L282.646 210.148C282.007 209.605 281.078 209.579 280.131 209.912C279.179 210.248 278.171 210.957 277.324 211.953L277.603 212.19ZM276.637 217.218C276.138 216.794 275.957 216.04 276.122 215.116C276.286 214.196 276.79 213.146 277.603 212.19L277.324 211.953C276.477 212.949 275.94 214.058 275.762 215.051C275.586 216.04 275.761 216.953 276.4 217.496L276.637 217.218Z" fill="#FD8813" mask="url(#path-22-inside-2)"/>
<path d="M279.349 222.677L278.89 222.196L278.656 222.248L278.644 222.644C278.917 222.672 279.071 222.678 279.349 222.677Z" fill="#FD6C1A"/>
<g opacity="0.3" filter="url(#filter5_f)">
<path d="M278.91 219.196L276.571 217.625M284.52 211.924L282.528 210.115" stroke="#FD8414" stroke-width="0.182725"/>
</g>
<g opacity="0.5" filter="url(#filter6_f)">
<path d="M283.82 217.295C282.998 218.261 282.03 218.938 281.131 219.255C280.23 219.572 279.418 219.522 278.884 219.068C278.35 218.615 278.17 217.821 278.338 216.881C278.506 215.943 279.018 214.878 279.84 213.912C280.661 212.946 281.629 212.269 282.528 211.952C283.429 211.635 284.241 211.685 284.775 212.138C285.309 212.592 285.489 213.385 285.321 214.326C285.153 215.264 284.641 216.329 283.82 217.295Z" stroke="url(#paint17_linear)" stroke-width="0.182725"/>
</g>
<path d="M276.53 221.199C276.541 221.176 276.562 221.159 276.588 221.155C277.285 221.061 278.463 221.445 278.866 222.168C278.877 222.189 278.878 222.214 278.868 222.236L278.201 223.671L275.888 222.595L276.53 221.199Z" fill="url(#paint18_linear)"/>
<path opacity="0.5" d="M276.53 221.199C276.541 221.176 276.562 221.159 276.588 221.155C277.285 221.061 278.463 221.445 278.866 222.168C278.877 222.189 278.878 222.214 278.868 222.236L278.201 223.671L275.888 222.595L276.53 221.199Z" fill="url(#paint19_linear)"/>
<g filter="url(#filter7_i)">
<path d="M274.604 222.545C274.708 222.32 274.936 222.176 275.183 222.196C276.717 222.318 278.028 222.927 278.915 223.921C279.068 224.093 279.092 224.341 278.995 224.55L274.249 234.756L269.872 232.721L274.604 222.545Z" fill="url(#paint20_linear)"/>
</g>
<path opacity="0.5" d="M274.604 222.545C274.708 222.32 274.936 222.176 275.183 222.196C276.717 222.318 278.028 222.927 278.915 223.921C279.068 224.093 279.092 224.341 278.995 224.55L274.249 234.756L269.872 232.721L274.604 222.545Z" fill="url(#paint21_linear)"/>
<ellipse cx="272.064" cy="233.731" rx="2.41366" ry="0.402827" transform="rotate(24.9512 272.064 233.731)" fill="url(#paint22_linear)"/>
<g opacity="0.3" filter="url(#filter8_f)">
<path d="M274.655 219.845C276.778 221.65 280.987 220.185 284.057 216.574C287.127 212.963 287.894 208.573 285.772 206.768C283.649 204.964 279.44 206.429 276.37 210.04" stroke="url(#paint23_linear)" stroke-width="1.29617"/>
</g>
<g filter="url(#filter9_d)">
<circle cx="189.245" cy="290.154" r="27.0554" fill="url(#paint24_linear)"/>
</g>
<g filter="url(#filter10_d)">
<circle cx="95.5925" cy="220.435" r="27.0554" fill="url(#paint25_linear)"/>
</g>
<path fill-rule="evenodd" clip-rule="evenodd" d="M144.612 110.846H122.229V129.005H122.234C122.409 131.407 127.351 133.333 133.421 133.333C139.491 133.333 144.432 131.407 144.608 129.005H144.612V128.88C144.612 128.877 144.612 128.875 144.612 128.872C144.612 128.87 144.612 128.868 144.612 128.865V110.846Z" fill="url(#paint26_linear)"/>
<path fill-rule="evenodd" clip-rule="evenodd" d="M144.612 110.846H122.229V129.005H122.234C122.409 131.407 127.351 133.333 133.421 133.333C139.491 133.333 144.432 131.407 144.608 129.005H144.612V128.88C144.612 128.877 144.612 128.875 144.612 128.872C144.612 128.87 144.612 128.868 144.612 128.865V110.846Z" fill="url(#paint27_radial)"/>
<ellipse cx="133.42" cy="110.847" rx="11.1917" ry="4.46077" fill="url(#paint28_linear)"/>
<mask id="mask0" mask-type="alpha" maskUnits="userSpaceOnUse" x="122" y="110" width="23" height="24">
<path fill-rule="evenodd" clip-rule="evenodd" d="M144.612 110.846H122.229V129.005H122.234C122.409 131.407 127.351 133.333 133.421 133.333C139.491 133.333 144.432 131.407 144.608 129.005H144.612V128.88C144.612 128.877 144.612 128.875 144.612 128.872C144.612 128.87 144.612 128.868 144.612 128.865V110.846Z" fill="url(#paint29_linear)"/>
</mask>
<g mask="url(#mask0)">
<path d="M122.714 117.998L122.198 117.187L121.852 123.313L122.242 123.741L123.348 124.95L124.852 125.857L126.968 126.616L129.018 127.081L131.783 127.324H135.056L138.691 126.823L140.608 126.403L142.554 125.466L143.542 124.84L144.28 124.213L144.729 123.653L144.818 117.098L144.309 117.732L143.034 118.912L140.697 119.937C139.851 120.143 138.153 120.559 138.123 120.571C138.094 120.583 136.292 120.797 135.395 120.903L132.844 121.02L130.441 120.814L127.529 120.305L125.155 119.62L122.714 117.998Z" fill="url(#paint30_linear)"/>
<path d="M122.714 117.998L122.198 117.187L121.852 123.313L122.242 123.741L123.348 124.95L124.852 125.857L126.968 126.616L129.018 127.081L131.783 127.324H135.056L138.691 126.823L140.608 126.403L142.554 125.466L143.542 124.84L144.28 124.213L144.729 123.653L144.818 117.098L144.309 117.732L143.034 118.912L140.697 119.937C139.851 120.143 138.153 120.559 138.123 120.571C138.094 120.583 136.292 120.797 135.395 120.903L132.844 121.02L130.441 120.814L127.529 120.305L125.155 119.62L122.714 117.998Z" fill="url(#paint31_linear)"/>
<g filter="url(#filter11_f)">
<path d="M144.761 122.8C144.761 121.576 143.487 120.467 141.447 119.661M122.083 122.8C122.083 121.581 123.345 120.477 125.369 119.672" stroke="url(#paint32_linear)" stroke-width="0.414225"/>
</g>
<path d="M144.761 116.52C144.761 118.984 139.602 120.981 133.422 120.981C127.241 120.981 122.083 118.984 122.083 116.52" stroke="#3AC43F" stroke-width="0.414225"/>
<path d="M144.761 122.904C144.761 125.368 139.602 127.365 133.422 127.365C127.241 127.365 122.083 125.368 122.083 122.904" stroke="#3AC43F" stroke-width="0.414225"/>
</g>
<g opacity="0.6" filter="url(#filter12_f)">
<path d="M122.813 117.899L122.297 117.088L121.951 123.215L122.341 123.643L123.447 124.852L124.951 125.759L127.067 126.518L129.117 126.983L131.882 127.226H135.155L138.79 126.725L140.707 126.305L142.654 125.368L143.642 124.741L144.379 124.115L144.829 123.554L144.917 117L144.408 117.634L143.133 118.814L140.796 119.839C139.95 120.045 138.252 120.461 138.223 120.473C138.193 120.484 136.392 120.699 135.495 120.804L132.944 120.922L130.54 120.716L127.628 120.207L125.254 119.522L122.813 117.899Z" fill="url(#paint33_linear)"/>
</g>
<path opacity="0.3" d="M144.475 117.508L144.488 123.842" stroke="#3BC740" stroke-width="0.414225"/>
<g filter="url(#filter13_i)">
<path d="M132.874 107.855C133.08 107.656 133.424 107.802 133.424 108.089V111.679H129.714C129.422 111.679 129.278 111.323 129.489 111.121L132.874 107.855Z" fill="url(#paint34_linear)"/>
<path d="M133.973 113.838C133.767 114.036 133.424 113.89 133.424 113.604V110.014H137.133C137.425 110.014 137.569 110.369 137.359 110.572L133.973 113.838Z" fill="url(#paint35_linear)"/>
</g>
<path d="M243.118 119.218L256.05 113.264V127.879C256.05 128.28 255.819 128.646 255.457 128.819L243.616 134.473C243.422 134.55 243.313 134.564 243.118 134.562V119.218Z" fill="url(#paint36_linear)"/>
<path d="M243.117 119.279L230.545 113.301V127.847C230.545 128.243 230.771 128.605 231.126 128.781L242.531 134.409C242.746 134.519 242.874 134.556 243.117 134.562V119.279Z" fill="url(#paint37_linear)"/>
<path opacity="0.32" d="M246.995 120.773C246.995 120.694 247.04 120.622 247.111 120.586L253.404 117.458C253.542 117.39 253.705 117.49 253.705 117.645V117.919C253.705 117.998 253.66 118.071 253.589 118.106L247.296 121.234C247.158 121.303 246.995 121.202 246.995 121.047V120.773Z" fill="#C0CDDC"/>
<path opacity="0.32" d="M248.839 129.555C248.839 129.477 248.883 129.405 248.953 129.37L254.667 126.464C254.806 126.394 254.97 126.494 254.97 126.65V126.922C254.97 127 254.926 127.072 254.856 127.108L249.142 130.013C249.003 130.084 248.839 129.983 248.839 129.827V129.555Z" fill="#C0CDDC"/>
<ellipse opacity="0.4" rx="0.921081" ry="0.501166" transform="matrix(-0.474984 0.879994 0.879994 0.474984 245.692 121.553)" fill="#C0CDDC"/>
<ellipse opacity="0.4" rx="0.921081" ry="0.501166" transform="matrix(-0.474984 0.879994 0.879994 0.474984 245.695 131.347)" fill="#C0CDDC"/>
<ellipse opacity="0.4" rx="0.921081" ry="0.501166" transform="matrix(-0.474984 0.879994 0.879994 0.474984 247.454 130.534)" fill="#C0CDDC"/>
<g opacity="0.6" filter="url(#filter14_f)">
<path d="M230.464 123.696L230.339 118.544L230.858 118.784L237.365 122.071L241.479 124.109L243.065 124.82L244.093 124.436L248.264 122.427L252.859 120.197L255.55 118.794L256.261 118.371L256.155 123.657L247.774 127.771L244.458 129.424L243.18 129.962L242.796 129.885L233.761 125.435L230.464 123.696Z" fill="url(#paint38_linear)"/>
</g>
<mask id="mask1" mask-type="alpha" maskUnits="userSpaceOnUse" x="230" y="113" width="27" height="22">
<path d="M243.119 119.218L256.051 113.264V128.164L243.617 134.102C243.423 134.179 243.314 134.193 243.119 134.19V119.218Z" fill="url(#paint39_linear)"/>
<path d="M243.119 119.218L230.546 113.301V128.123L242.532 134.038C242.747 134.147 242.876 134.184 243.119 134.19V119.218Z" fill="url(#paint40_linear)"/>
</mask>
<g mask="url(#mask1)">
<path d="M230.464 123.696L230.339 118.544L230.858 118.784L237.365 122.071L241.479 124.109L243.065 124.82L244.093 124.436L248.264 122.427L252.859 120.197L255.55 118.794L256.261 118.371L256.155 123.657L247.774 127.771L244.458 129.424L243.18 129.962L242.796 129.885L233.761 125.435L230.464 123.696Z" fill="url(#paint41_linear)"/>
<path d="M230.429 123.368C230.435 123.608 230.67 123.841 230.92 123.967L242.531 129.782C242.92 129.977 243.377 129.979 243.768 129.788L255.646 123.97C255.901 123.845 256.169 123.605 256.176 123.363" stroke="#BA46DF" stroke-width="0.347247"/>
<g opacity="0.21" filter="url(#filter15_i)">
<ellipse rx="0.921081" ry="0.501166" transform="matrix(-0.474984 0.879994 0.879994 0.474984 246.119 126.465)" fill="#D564F0"/>
</g>
<g opacity="0.1" filter="url(#filter16_i)">
<path d="M247.833 125.386C247.833 125.307 247.877 125.236 247.946 125.2L253.661 122.295C253.799 122.224 253.964 122.325 253.964 122.48V122.752C253.964 122.831 253.92 122.903 253.85 122.938L248.135 125.844C247.997 125.914 247.833 125.814 247.833 125.658V125.386Z" fill="#D564F0"/>
</g>
<path d="M230.425 118.211C230.432 118.451 230.666 118.684 230.916 118.81L242.527 124.625C242.916 124.82 243.374 124.822 243.764 124.631L255.643 118.813C255.897 118.688 256.166 118.448 256.172 118.206" stroke="#BA46DF" stroke-width="0.347247"/>
<g filter="url(#filter17_f)">
<path d="M243.768 116.795C243.377 116.604 242.92 116.606 242.531 116.801M230.429 123.215C230.435 122.974 230.67 122.741 230.92 122.616L234.749 120.698M256.176 123.22C256.169 122.978 255.901 122.738 255.646 122.613L251.761 120.71" stroke="url(#paint42_linear)" stroke-width="0.347247"/>
</g>
</g>
<path d="M242.271 107.253C242.834 106.983 243.488 106.981 244.054 107.245L254.995 112.368C255.787 112.739 255.797 113.862 255.011 114.247L244.087 119.597C243.503 119.884 242.819 119.88 242.238 119.589L231.562 114.243C230.787 113.855 230.797 112.746 231.579 112.372L242.271 107.253Z" fill="url(#paint43_linear)"/>
<g opacity="0.5" filter="url(#filter18_i)">
<path d="M242.283 108.475C242.846 108.205 243.5 108.202 244.066 108.467L253.245 112.765C253.721 112.987 253.727 113.661 253.255 113.892L244.099 118.377C243.515 118.663 242.831 118.66 242.25 118.368L233.307 113.89C232.842 113.657 232.848 112.991 233.317 112.767L242.283 108.475Z" fill="url(#paint44_linear)"/>
</g>
<path d="M81.773 222.69L83.7722 223.624L83.8374 221.654L81.773 222.69Z" fill="#F4F6F9"/>
<path d="M81.5563 222.997L80.9028 222.698L87.5003 219.549L88.1905 219.819L81.5563 222.997Z" fill="#FDFDFE"/>
<path d="M107.879 221.347L105.88 222.281L105.814 220.311L107.879 221.347Z" fill="#DBE2EB"/>
<path d="M108.112 221.696L108.765 221.397L102.205 218.237L101.515 218.507L108.112 221.696Z" fill="#E5EBF1"/>
<path fill-rule="evenodd" clip-rule="evenodd" d="M94.2944 206.15L93.5562 206.492L94.0487 206.814V224.077L105.984 228.983V212.269C105.984 211.849 105.742 211.466 105.363 211.285L94.8281 206.265C94.6545 206.182 94.4679 206.2 94.3209 206.285L94.2944 206.15Z" fill="url(#paint45_linear)"/>
<path d="M105.27 229.318L99.5998 230.286L93.3348 224.412V207.092C93.3348 206.692 93.7525 206.428 94.1142 206.6L104.649 211.621C105.028 211.801 105.27 212.184 105.27 212.604V229.318Z" fill="url(#paint46_linear)"/>
<mask id="mask2" mask-type="alpha" maskUnits="userSpaceOnUse" x="93" y="206" width="13" height="25">
<path d="M105.27 229.318L99.5998 230.286L93.3348 224.412V207.092C93.3348 206.692 93.7525 206.428 94.1142 206.6L104.649 211.62C105.028 211.801 105.27 212.184 105.27 212.604V229.318Z" fill="url(#paint47_linear)"/>
</mask>
<g mask="url(#mask2)">
<g opacity="0.3" filter="url(#filter19_f)">
<path d="M103.499 230.072L97.6003 231.328L90.4025 224.817V206.633L102.865 212.378C103.252 212.556 103.499 212.943 103.499 213.368V230.072Z" fill="#FB4059"/>
</g>
</g>
<path d="M89.8471 226.04L101.782 230.946V214.036C101.782 213.735 101.61 213.462 101.338 213.333L90.5322 208.182C90.3988 208.118 90.2547 208.138 90.1465 208.211L88.9678 208.778L89.8471 209.391V226.04Z" fill="url(#paint48_linear)" stroke="url(#paint49_linear)" stroke-width="0.296529"/>
<g filter="url(#filter20_i)">
<path d="M100.497 231.573L94.5979 232.829L88.5613 226.667V209.348C88.5613 208.947 88.9791 208.683 89.3407 208.856L99.8755 213.876C100.255 214.056 100.497 214.439 100.497 214.86V231.573Z" fill="url(#paint50_linear)"/>
</g>
<path d="M100.348 214.86V231.453L94.6467 232.667L88.7096 226.607V209.348C88.7096 209.056 89.0137 208.864 89.2769 208.989L99.8118 214.01C100.14 214.166 100.348 214.496 100.348 214.86Z" stroke="url(#paint51_linear)" stroke-width="0.296529"/>
<g opacity="0.78" filter="url(#filter21_f)">
<path d="M90.3982 213.552L90.366 208.875C90.3636 208.528 90.7228 208.296 91.0383 208.441L91.5008 208.653" stroke="url(#paint52_linear)" stroke-width="0.296529"/>
</g>
<g filter="url(#filter22_i)">
<path fill-rule="evenodd" clip-rule="evenodd" d="M84.6293 210.808L83.8911 211.15L84.3837 211.472V228.735L96.319 233.64V216.927C96.319 216.506 96.0773 216.124 95.6979 215.943L85.1631 210.923C84.9895 210.84 84.8029 210.858 84.6559 210.943L84.6293 210.808Z" fill="url(#paint53_linear)"/>
</g>
<path d="M95.6045 233.976L83.6692 229.07V211.75C83.6692 211.35 84.087 211.086 84.4486 211.258L94.9834 216.278C95.3628 216.459 95.6045 216.842 95.6045 217.262V233.976Z" fill="url(#paint54_linear)"/>
<path d="M93.9803 228.47L93.9907 228.475L93.5253 228.738L80.9028 222.692L81.5264 222.403L93.1071 227.834C93.3386 227.942 93.6066 227.942 93.8378 227.832L108.142 221.073L108.759 221.393L93.9803 228.47Z" fill="url(#paint55_linear)"/>
<path d="M92.8539 228.391C93.258 228.584 93.7278 228.584 94.1319 228.391L108.758 221.394V227.539C108.758 227.809 108.602 228.055 108.359 228.172L94.1319 234.977C93.7278 235.171 93.258 235.171 92.8539 234.978L81.2969 229.459C81.0528 229.342 80.8975 229.096 80.8975 228.826V222.682L92.8539 228.391Z" fill="url(#paint56_linear)"/>
<path d="M92.8539 228.391C93.258 228.584 93.7278 228.584 94.1319 228.391L108.758 221.394V227.539C108.758 227.809 108.602 228.055 108.359 228.172L94.1319 234.977C93.7278 235.171 93.258 235.171 92.8539 234.978L81.2969 229.459C81.0528 229.342 80.8975 229.096 80.8975 228.826V222.682L92.8539 228.391Z" fill="url(#paint57_linear)"/>
<path d="M85.1826 213.287L93.4704 217.245V217.878L85.1826 213.921V213.287Z" fill="#F1F4F8"/>
<path opacity="0.3" d="M85.1826 215.255L91.7179 218.376V219.01L85.1826 215.889V215.255Z" fill="#F1F4F8"/>
<path opacity="0.4" d="M85.1826 217.224L89.3265 219.203V219.836L85.1826 217.858V217.224Z" fill="#F1F4F8"/>
<path opacity="0.4" d="M85.1826 219.192L93.4704 223.15V223.783L85.1826 219.826V219.192Z" fill="#F1F4F8"/>
<path opacity="0.6" d="M85.1826 221.161L93.4704 225.118V225.752L85.1826 221.795V221.161Z" fill="#F1F4F8"/>
<path fill-rule="evenodd" clip-rule="evenodd" d="M184.385 276.405L185.367 275.942L185.167 276.373L184.385 276.405ZM199.388 305.002L198.406 305.465L198.606 305.035L199.388 305.002ZM187.343 276.374C186.068 275.745 184.576 276.673 184.576 278.095V297.032C184.576 297.762 184.99 298.429 185.645 298.752L197.419 304.564C198.694 305.193 200.187 304.265 200.187 302.844V283.906C200.187 283.176 199.772 282.509 199.117 282.186L187.343 276.374Z" fill="url(#paint58_linear)"/>
<path d="M183.633 278.541C183.633 277.119 185.125 276.192 186.401 276.821L198.175 282.632C198.829 282.956 199.244 283.623 199.244 284.353V303.29C199.244 304.712 197.751 305.64 196.476 305.011L184.702 299.199C184.047 298.876 183.633 298.209 183.633 297.479V278.541Z" fill="url(#paint59_linear)"/>
<g opacity="0.6" filter="url(#filter23_f)">
<path d="M184.518 277.533L181.677 278.926L194.517 305.984L197.529 304.627C197.919 304.451 198.17 304.063 198.17 303.636V284.682C198.17 284.197 197.897 283.755 197.464 283.538L185.484 277.537C185.18 277.385 184.823 277.384 184.518 277.533Z" fill="url(#paint60_linear)"/>
</g>
<path d="M184.518 277.533L181.677 278.926L194.517 305.984L197.529 304.627C197.919 304.451 198.17 304.063 198.17 303.636V284.682C198.17 284.197 197.897 283.755 197.464 283.538L185.484 277.537C185.18 277.385 184.823 277.384 184.518 277.533Z" fill="url(#paint61_linear)"/>
<mask id="mask3" mask-type="alpha" maskUnits="userSpaceOnUse" x="181" y="277" width="18" height="29">
<path d="M184.518 277.533L181.677 278.927L194.517 305.984L197.529 304.627C197.919 304.452 198.17 304.064 198.17 303.636V284.682C198.17 284.198 197.897 283.755 197.464 283.538L185.484 277.537C185.18 277.385 184.823 277.384 184.518 277.533Z" fill="url(#paint62_linear)"/>
</mask>
<g mask="url(#mask3)">
<path d="M185 277.994V280.633L181.827 278.934L184.819 277.492L185.331 277.663C185.148 277.663 185 277.811 185 277.994Z" fill="url(#paint63_linear)"/>
<g filter="url(#filter24_f)">
<path d="M185.025 280.768V278.305C185.025 277.93 185.415 277.682 185.755 277.842L186.508 278.196" stroke="#11BBFA" stroke-width="0.319757"/>
</g>
<g opacity="0.34" filter="url(#filter25_f)">
<path d="M198.086 303.219V303.219C198.086 303.745 197.522 304.08 197.06 303.828L194.317 302.335" stroke="#1289F6" stroke-width="0.319757"/>
</g>
<path d="M194.594 305.774L181.889 279.001L184.589 277.677C184.849 277.549 185.153 277.551 185.412 277.68L197.392 283.681C197.771 283.871 198.01 284.258 198.01 284.682V303.636C198.01 304.001 197.796 304.332 197.464 304.482L194.594 305.774Z" stroke="url(#paint64_linear)" stroke-width="0.319757"/>
</g>
<g opacity="0.2">
<mask id="mask4" mask-type="alpha" maskUnits="userSpaceOnUse" x="181" y="277" width="18" height="29">
<path d="M184.518 277.533L181.677 278.927L194.517 305.984L197.529 304.627C197.919 304.452 198.17 304.064 198.17 303.636V284.682C198.17 284.198 197.897 283.755 197.464 283.538L185.484 277.537C185.18 277.385 184.823 277.384 184.518 277.533Z" fill="url(#paint65_linear)"/>
</mask>
<g mask="url(#mask4)">
<g style="mix-blend-mode:overlay" filter="url(#filter26_f)">
<path d="M195.289 283.787L183.223 277.703L180.519 278.592L181.112 279.814L188.223 297.223L193.52 306.372L196.52 305.594V285.785C196.52 284.94 196.044 284.167 195.289 283.787Z" fill="black"/>
</g>
</g>
</g>
<path fill-rule="evenodd" clip-rule="evenodd" d="M179.246 278.948L180.228 278.485L180.029 278.916L179.246 278.948ZM194.25 307.545L193.268 308.009L193.468 307.578L194.25 307.545ZM182.205 278.917C180.93 278.288 179.438 279.216 179.438 280.638V299.575C179.438 300.306 179.852 300.972 180.507 301.296L192.281 307.107C193.556 307.737 195.049 306.809 195.049 305.387V286.449C195.049 285.719 194.634 285.052 193.979 284.729L182.205 278.917Z" fill="url(#paint66_linear)"/>
<path d="M178.492 281.085C178.492 279.663 179.985 278.735 181.26 279.364L193.034 285.176C193.689 285.499 194.103 286.166 194.103 286.896V305.833C194.103 307.255 192.611 308.183 191.336 307.554L179.562 301.742C178.907 301.419 178.492 300.752 178.492 300.022V281.085Z" fill="url(#paint67_linear)"/>
<g filter="url(#filter27_i)">
<path d="M195.553 289.085C195.553 288.958 195.625 288.842 195.74 288.786L197.373 287.983C197.595 287.874 197.854 288.036 197.854 288.282C197.854 288.409 197.781 288.525 197.667 288.581L196.033 289.384C195.812 289.493 195.553 289.332 195.553 289.085Z" fill="url(#paint68_linear)"/>
</g>
<g filter="url(#filter28_i)">
<path d="M195.553 290.381C195.553 290.254 195.625 290.138 195.74 290.082L197.373 289.279C197.595 289.17 197.854 289.331 197.854 289.578C197.854 289.705 197.781 289.821 197.667 289.877L196.033 290.68C195.812 290.789 195.553 290.628 195.553 290.381Z" fill="url(#paint69_linear)"/>
</g>
<g filter="url(#filter29_i)">
<path d="M195.553 291.676C195.553 291.549 195.625 291.433 195.74 291.377L197.373 290.575C197.595 290.466 197.854 290.627 197.854 290.874C197.854 291.001 197.781 291.117 197.667 291.173L196.033 291.976C195.812 292.084 195.553 291.923 195.553 291.676Z" fill="url(#paint70_linear)"/>
</g>
<g filter="url(#filter30_i)">
<path d="M195.553 292.973C195.553 292.846 195.625 292.73 195.74 292.673L197.373 291.871C197.595 291.762 197.854 291.923 197.854 292.17C197.854 292.297 197.781 292.413 197.667 292.469L196.033 293.272C195.812 293.38 195.553 293.219 195.553 292.973Z" fill="url(#paint71_linear)"/>
</g>
<g filter="url(#filter31_i)">
<path d="M195.553 294.269C195.553 294.141 195.625 294.025 195.74 293.969L197.373 293.167C197.595 293.058 197.854 293.219 197.854 293.466C197.854 293.593 197.781 293.709 197.667 293.765L196.033 294.568C195.812 294.676 195.553 294.515 195.553 294.269Z" fill="url(#paint72_linear)"/>
</g>
<g filter="url(#filter32_i)">
<path d="M195.553 295.564C195.553 295.437 195.625 295.321 195.74 295.265L197.373 294.463C197.595 294.354 197.854 294.515 197.854 294.762C197.854 294.889 197.781 295.005 197.667 295.061L196.033 295.864C195.812 295.972 195.553 295.811 195.553 295.564Z" fill="url(#paint73_linear)"/>
</g>
<ellipse cx="186.284" cy="290.423" rx="8.19877" ry="4.461" transform="rotate(61.6417 186.284 290.423)" fill="url(#paint74_linear)"/>
<ellipse cx="185.832" cy="290.866" rx="8.19877" ry="4.461" transform="rotate(61.6417 185.832 290.866)" fill="url(#paint75_linear)"/>
<ellipse cx="185.835" cy="290.867" rx="2.09064" ry="1.13753" transform="rotate(61.6417 185.835 290.867)" fill="#EBEFF4"/>
<ellipse opacity="0.4" cx="192.712" cy="286.512" rx="0.634325" ry="0.34514" transform="rotate(61.6417 192.712 286.512)" fill="#CAD4DF"/>
<ellipse opacity="0.4" cx="179.653" cy="280.935" rx="0.634325" ry="0.34514" transform="rotate(61.6417 179.653 280.935)" fill="#CAD4DF"/>
<ellipse opacity="0.4" cx="192.71" cy="291.367" rx="0.634325" ry="0.34514" transform="rotate(61.6417 192.71 291.367)" fill="#CAD4DF"/>
<ellipse opacity="0.4" cx="179.651" cy="285.79" rx="0.634325" ry="0.34514" transform="rotate(61.6417 179.651 285.79)" fill="#CAD4DF"/>
<ellipse opacity="0.4" cx="192.71" cy="296.222" rx="0.634325" ry="0.34514" transform="rotate(61.6417 192.71 296.222)" fill="#CAD4DF"/>
<ellipse opacity="0.4" cx="179.646" cy="290.645" rx="0.634325" ry="0.34514" transform="rotate(61.6417 179.646 290.645)" fill="#CAD4DF"/>
<ellipse opacity="0.4" cx="192.707" cy="301.077" rx="0.634325" ry="0.34514" transform="rotate(61.6417 192.707 301.077)" fill="#CAD4DF"/>
<ellipse opacity="0.4" cx="179.645" cy="295.5" rx="0.634325" ry="0.34514" transform="rotate(61.6417 179.645 295.5)" fill="#CAD4DF"/>
<ellipse opacity="0.4" cx="192.704" cy="305.932" rx="0.634325" ry="0.34514" transform="rotate(61.6417 192.704 305.932)" fill="#CAD4DF"/>
<ellipse opacity="0.4" cx="179.642" cy="300.355" rx="0.634325" ry="0.34514" transform="rotate(61.6417 179.642 300.355)" fill="#CAD4DF"/>
<path d="M190.459 302.337C190.844 303.109 190.795 303.916 190.349 304.139C189.902 304.362 189.228 303.915 188.843 303.143C188.55 302.556 186.819 297.92 186.003 295.723C185.914 295.482 186.101 295.389 186.239 295.605C187.504 297.579 190.166 301.75 190.459 302.337Z" fill="url(#paint76_linear)"/>
<path d="M185.629 295.384L185.904 295.213L186.358 296.141L186.283 296.491L185.629 295.384Z" fill="#E0E7EF"/>
<path d="M190.185 302.501C190.57 303.274 190.521 304.081 190.075 304.303C189.629 304.526 188.954 304.08 188.569 303.307C188.276 302.72 186.545 298.084 185.729 295.887C185.64 295.646 185.827 295.553 185.965 295.769C187.23 297.743 189.892 301.914 190.185 302.501Z" fill="url(#paint77_linear)"/>
</g>
<defs>
<filter id="filter0_d" x="90.3897" y="88.7996" width="85.3286" height="85.3286" filterUnits="userSpaceOnUse" color-interpolation-filters="sRGB">
<feFlood flood-opacity="0" result="BackgroundImageFix"/>
<feColorMatrix in="SourceAlpha" type="matrix" values="0 0 0 0 0 0 0 0 0 0 0 0 0 0 0 0 0 0 127 0"/>
<feOffset dy="11.9668"/>
<feGaussianBlur stdDeviation="7.80444"/>
<feColorMatrix type="matrix" values="0 0 0 0 0.0175 0 0 0 0 0.4602 0 0 0 0 0.6 0 0 0 0.15 0"/>
<feBlend mode="normal" in2="BackgroundImageFix" result="effect1_dropShadow"/>
<feBlend mode="normal" in="SourceGraphic" in2="effect1_dropShadow" result="shape"/>
</filter>
<filter id="filter1_d" x="200.691" y="88.7996" width="85.3286" height="85.3286" filterUnits="userSpaceOnUse" color-interpolation-filters="sRGB">
<feFlood flood-opacity="0" result="BackgroundImageFix"/>
<feColorMatrix in="SourceAlpha" type="matrix" values="0 0 0 0 0 0 0 0 0 0 0 0 0 0 0 0 0 0 127 0"/>
<feOffset dy="11.9668"/>
<feGaussianBlur stdDeviation="7.80444"/>
<feColorMatrix type="matrix" values="0 0 0 0 0.0175 0 0 0 0 0.4602 0 0 0 0 0.6 0 0 0 0.15 0"/>
<feBlend mode="normal" in2="BackgroundImageFix" result="effect1_dropShadow"/>
<feBlend mode="normal" in="SourceGraphic" in2="effect1_dropShadow" result="shape"/>
</filter>
<filter id="filter2_d" x="237.448" y="189.706" width="85.3286" height="85.3286" filterUnits="userSpaceOnUse" color-interpolation-filters="sRGB">
<feFlood flood-opacity="0" result="BackgroundImageFix"/>
<feColorMatrix in="SourceAlpha" type="matrix" values="0 0 0 0 0 0 0 0 0 0 0 0 0 0 0 0 0 0 127 0"/>
<feOffset dy="11.9668"/>
<feGaussianBlur stdDeviation="7.80444"/>
<feColorMatrix type="matrix" values="0 0 0 0 0.0175 0 0 0 0 0.4602 0 0 0 0 0.6 0 0 0 0.15 0"/>
<feBlend mode="normal" in2="BackgroundImageFix" result="effect1_dropShadow"/>
<feBlend mode="normal" in="SourceGraphic" in2="effect1_dropShadow" result="shape"/>
</filter>
<filter id="filter3_f" x="260.387" y="194.024" width="40.9428" height="41.5835" filterUnits="userSpaceOnUse" color-interpolation-filters="sRGB">
<feFlood flood-opacity="0" result="BackgroundImageFix"/>
<feBlend mode="normal" in="SourceGraphic" in2="BackgroundImageFix" result="shape"/>
<feGaussianBlur stdDeviation="6.46503" result="effect1_foregroundBlur"/>
</filter>
<filter id="filter4_ii" x="273.317" y="206.26" width="12.9958" height="15.3763" filterUnits="userSpaceOnUse" color-interpolation-filters="sRGB">
<feFlood flood-opacity="0" result="BackgroundImageFix"/>
<feBlend mode="normal" in="SourceGraphic" in2="BackgroundImageFix" result="shape"/>
<feColorMatrix in="SourceAlpha" type="matrix" values="0 0 0 0 0 0 0 0 0 0 0 0 0 0 0 0 0 0 127 0" result="hardAlpha"/>
<feOffset dy="0.623135"/>
<feGaussianBlur stdDeviation="0.545243"/>
<feComposite in2="hardAlpha" operator="arithmetic" k2="-1" k3="1"/>
<feColorMatrix type="matrix" values="0 0 0 0 0.996078 0 0 0 0 0.631373 0 0 0 0 0.054902 0 0 0 1 0"/>
<feBlend mode="normal" in2="shape" result="effect1_innerShadow"/>
<feColorMatrix in="SourceAlpha" type="matrix" values="0 0 0 0 0 0 0 0 0 0 0 0 0 0 0 0 0 0 127 0" result="hardAlpha"/>
<feOffset dy="-0.694354"/>
<feGaussianBlur stdDeviation="0.86742"/>
<feComposite in2="hardAlpha" operator="arithmetic" k2="-1" k3="1"/>
<feColorMatrix type="matrix" values="0 0 0 0 1 0 0 0 0 1 0 0 0 0 1 0 0 0 0.33 0"/>
<feBlend mode="normal" in2="effect1_innerShadow" result="effect2_innerShadow"/>
</filter>
<filter id="filter5_f" x="276.374" y="209.901" width="8.35327" height="9.51725" filterUnits="userSpaceOnUse" color-interpolation-filters="sRGB">
<feFlood flood-opacity="0" result="BackgroundImageFix"/>
<feBlend mode="normal" in="SourceGraphic" in2="BackgroundImageFix" result="shape"/>
<feGaussianBlur stdDeviation="0.0730899" result="effect1_foregroundBlur"/>
</filter>
<filter id="filter6_f" x="278.04" y="211.512" width="7.5787" height="8.18314" filterUnits="userSpaceOnUse" color-interpolation-filters="sRGB">
<feFlood flood-opacity="0" result="BackgroundImageFix"/>
<feBlend mode="normal" in="SourceGraphic" in2="BackgroundImageFix" result="shape"/>
<feGaussianBlur stdDeviation="0.0730899" result="effect1_foregroundBlur"/>
</filter>
<filter id="filter7_i" x="269.794" y="221.181" width="9.25869" height="13.5747" filterUnits="userSpaceOnUse" color-interpolation-filters="sRGB">
<feFlood flood-opacity="0" result="BackgroundImageFix"/>
<feBlend mode="normal" in="SourceGraphic" in2="BackgroundImageFix" result="shape"/>
<feColorMatrix in="SourceAlpha" type="matrix" values="0 0 0 0 0 0 0 0 0 0 0 0 0 0 0 0 0 0 127 0" result="hardAlpha"/>
<feOffset dx="-0.0778919" dy="-1.01259"/>
<feGaussianBlur stdDeviation="1.20732"/>
<feComposite in2="hardAlpha" operator="arithmetic" k2="-1" k3="1"/>
<feColorMatrix type="matrix" values="0 0 0 0 0.635938 0 0 0 0 0.661719 0 0 0 0 0.6875 0 0 0 0.22 0"/>
<feBlend mode="normal" in2="shape" result="effect1_innerShadow"/>
</filter>
<filter id="filter8_f" x="272.292" y="203.404" width="17.2718" height="19.8055" filterUnits="userSpaceOnUse" color-interpolation-filters="sRGB">
<feFlood flood-opacity="0" result="BackgroundImageFix"/>
<feBlend mode="normal" in="SourceGraphic" in2="BackgroundImageFix" result="shape"/>
<feGaussianBlur stdDeviation="0.97213" result="effect1_foregroundBlur"/>
</filter>
<filter id="filter9_d" x="146.581" y="259.457" width="85.3286" height="85.3286" filterUnits="userSpaceOnUse" color-interpolation-filters="sRGB">
<feFlood flood-opacity="0" result="BackgroundImageFix"/>
<feColorMatrix in="SourceAlpha" type="matrix" values="0 0 0 0 0 0 0 0 0 0 0 0 0 0 0 0 0 0 127 0"/>
<feOffset dy="11.9668"/>
<feGaussianBlur stdDeviation="7.80444"/>
<feColorMatrix type="matrix" values="0 0 0 0 0.0175 0 0 0 0 0.4602 0 0 0 0 0.6 0 0 0 0.15 0"/>
<feBlend mode="normal" in2="BackgroundImageFix" result="effect1_dropShadow"/>
<feBlend mode="normal" in="SourceGraphic" in2="effect1_dropShadow" result="shape"/>
</filter>
<filter id="filter10_d" x="52.9282" y="189.737" width="85.3286" height="85.3286" filterUnits="userSpaceOnUse" color-interpolation-filters="sRGB">
<feFlood flood-opacity="0" result="BackgroundImageFix"/>
<feColorMatrix in="SourceAlpha" type="matrix" values="0 0 0 0 0 0 0 0 0 0 0 0 0 0 0 0 0 0 127 0"/>
<feOffset dy="11.9668"/>
<feGaussianBlur stdDeviation="7.80444"/>
<feColorMatrix type="matrix" values="0 0 0 0 0.0175 0 0 0 0 0.4602 0 0 0 0 0.6 0 0 0 0.15 0"/>
<feBlend mode="normal" in2="BackgroundImageFix" result="effect1_dropShadow"/>
<feBlend mode="normal" in="SourceGraphic" in2="effect1_dropShadow" result="shape"/>
</filter>
<filter id="filter11_f" x="121.544" y="119.137" width="23.755" height="3.9946" filterUnits="userSpaceOnUse" color-interpolation-filters="sRGB">
<feFlood flood-opacity="0" result="BackgroundImageFix"/>
<feBlend mode="normal" in="SourceGraphic" in2="BackgroundImageFix" result="shape"/>
<feGaussianBlur stdDeviation="0.16569" result="effect1_foregroundBlur"/>
</filter>
<filter id="filter12_f" x="112.838" y="107.887" width="41.1923" height="28.452" filterUnits="userSpaceOnUse" color-interpolation-filters="sRGB">
<feFlood flood-opacity="0" result="BackgroundImageFix"/>
<feBlend mode="normal" in="SourceGraphic" in2="BackgroundImageFix" result="shape"/>
<feGaussianBlur stdDeviation="4.55648" result="effect1_foregroundBlur"/>
</filter>
<filter id="filter13_i" x="129.389" y="107.764" width="8.06972" height="6.16564" filterUnits="userSpaceOnUse" color-interpolation-filters="sRGB">
<feFlood flood-opacity="0" result="BackgroundImageFix"/>
<feBlend mode="normal" in="SourceGraphic" in2="BackgroundImageFix" result="shape"/>
<feColorMatrix in="SourceAlpha" type="matrix" values="0 0 0 0 0 0 0 0 0 0 0 0 0 0 0 0 0 0 127 0" result="hardAlpha"/>
<feOffset dy="0.828451"/>
<feComposite in2="hardAlpha" operator="arithmetic" k2="-1" k3="1"/>
<feColorMatrix type="matrix" values="0 0 0 0 0.796078 0 0 0 0 0.843137 0 0 0 0 0.894118 0 0 0 1 0"/>
<feBlend mode="normal" in2="shape" result="effect1_innerShadow"/>
</filter>
<filter id="filter14_f" x="222.7" y="110.731" width="41.2005" height="26.8701" filterUnits="userSpaceOnUse" color-interpolation-filters="sRGB">
<feFlood flood-opacity="0" result="BackgroundImageFix"/>
<feBlend mode="normal" in="SourceGraphic" in2="BackgroundImageFix" result="shape"/>
<feGaussianBlur stdDeviation="3.81972" result="effect1_foregroundBlur"/>
</filter>
<filter id="filter15_i" x="245.498" y="125.62" width="1.24243" height="1.69" filterUnits="userSpaceOnUse" color-interpolation-filters="sRGB">
<feFlood flood-opacity="0" result="BackgroundImageFix"/>
<feBlend mode="normal" in="SourceGraphic" in2="BackgroundImageFix" result="shape"/>
<feColorMatrix in="SourceAlpha" type="matrix" values="0 0 0 0 0 0 0 0 0 0 0 0 0 0 0 0 0 0 127 0" result="hardAlpha"/>
<feOffset dx="-0.277797" dy="-0.208348"/>
<feComposite in2="hardAlpha" operator="arithmetic" k2="-1" k3="1"/>
<feColorMatrix type="matrix" values="0 0 0 0 0 0 0 0 0 0 0 0 0 0 0 0 0 0 0.34 0"/>
<feBlend mode="normal" in2="shape" result="effect1_innerShadow"/>
</filter>
<filter id="filter16_i" x="247.833" y="122.272" width="6.13109" height="3.59497" filterUnits="userSpaceOnUse" color-interpolation-filters="sRGB">
<feFlood flood-opacity="0" result="BackgroundImageFix"/>
<feBlend mode="normal" in="SourceGraphic" in2="BackgroundImageFix" result="shape"/>
<feColorMatrix in="SourceAlpha" type="matrix" values="0 0 0 0 0 0 0 0 0 0 0 0 0 0 0 0 0 0 127 0" result="hardAlpha"/>
<feOffset dx="-0.277797" dy="-0.208348"/>
<feComposite in2="hardAlpha" operator="arithmetic" k2="-1" k3="1"/>
<feColorMatrix type="matrix" values="0 0 0 0 0 0 0 0 0 0 0 0 0 0 0 0 0 0 0.34 0"/>
<feBlend mode="normal" in2="shape" result="effect1_innerShadow"/>
</filter>
<filter id="filter17_f" x="229.978" y="116.202" width="26.6493" height="7.30079" filterUnits="userSpaceOnUse" color-interpolation-filters="sRGB">
<feFlood flood-opacity="0" result="BackgroundImageFix"/>
<feBlend mode="normal" in="SourceGraphic" in2="BackgroundImageFix" result="shape"/>
<feGaussianBlur stdDeviation="0.138899" result="effect1_foregroundBlur"/>
</filter>
<filter id="filter18_i" x="232.962" y="108.271" width="20.6433" height="10.3184" filterUnits="userSpaceOnUse" color-interpolation-filters="sRGB">
<feFlood flood-opacity="0" result="BackgroundImageFix"/>
<feBlend mode="normal" in="SourceGraphic" in2="BackgroundImageFix" result="shape"/>
<feColorMatrix in="SourceAlpha" type="matrix" values="0 0 0 0 0 0 0 0 0 0 0 0 0 0 0 0 0 0 127 0" result="hardAlpha"/>
<feOffset dy="0.625044"/>
<feComposite in2="hardAlpha" operator="arithmetic" k2="-1" k3="1"/>
<feColorMatrix type="matrix" values="0 0 0 0 0.8175 0 0 0 0 0.856429 0 0 0 0 0.908333 0 0 0 1 0"/>
<feBlend mode="normal" in2="shape" result="effect1_innerShadow"/>
</filter>
<filter id="filter19_f" x="87.9115" y="204.142" width="18.0782" height="29.6762" filterUnits="userSpaceOnUse" color-interpolation-filters="sRGB">
<feFlood flood-opacity="0" result="BackgroundImageFix"/>
<feBlend mode="normal" in="SourceGraphic" in2="BackgroundImageFix" result="shape"/>
<feGaussianBlur stdDeviation="1.24542" result="effect1_foregroundBlur"/>
</filter>
<filter id="filter20_i" x="88.5615" y="207.791" width="11.9352" height="25.0385" filterUnits="userSpaceOnUse" color-interpolation-filters="sRGB">
<feFlood flood-opacity="0" result="BackgroundImageFix"/>
<feBlend mode="normal" in="SourceGraphic" in2="BackgroundImageFix" result="shape"/>
<feColorMatrix in="SourceAlpha" type="matrix" values="0 0 0 0 0 0 0 0 0 0 0 0 0 0 0 0 0 0 127 0" result="hardAlpha"/>
<feOffset dy="-1.01124"/>
<feGaussianBlur stdDeviation="1.51685"/>
<feComposite in2="hardAlpha" operator="arithmetic" k2="-1" k3="1"/>
<feColorMatrix type="matrix" values="0 0 0 0 1 0 0 0 0 1 0 0 0 0 1 0 0 0 0.96 0"/>
<feBlend mode="overlay" in2="shape" result="effect1_innerShadow"/>
</filter>
<filter id="filter21_f" x="89.9805" y="208.011" width="1.81944" height="5.77942" filterUnits="userSpaceOnUse" color-interpolation-filters="sRGB">
<feFlood flood-opacity="0" result="BackgroundImageFix"/>
<feBlend mode="normal" in="SourceGraphic" in2="BackgroundImageFix" result="shape"/>
<feGaussianBlur stdDeviation="0.118612" result="effect1_foregroundBlur"/>
</filter>
<filter id="filter22_i" x="83.476" y="210.808" width="12.843" height="23.307" filterUnits="userSpaceOnUse" color-interpolation-filters="sRGB">
<feFlood flood-opacity="0" result="BackgroundImageFix"/>
<feBlend mode="normal" in="SourceGraphic" in2="BackgroundImageFix" result="shape"/>
<feColorMatrix in="SourceAlpha" type="matrix" values="0 0 0 0 0 0 0 0 0 0 0 0 0 0 0 0 0 0 127 0" result="hardAlpha"/>
<feOffset dx="-0.415141" dy="0.474447"/>
<feGaussianBlur stdDeviation="0.622712"/>
<feComposite in2="hardAlpha" operator="arithmetic" k2="-1" k3="1"/>
<feColorMatrix type="matrix" values="0 0 0 0 0.984314 0 0 0 0 0.32549 0 0 0 0 0.423529 0 0 0 0.24 0"/>
<feBlend mode="normal" in2="shape" result="effect1_innerShadow"/>
</filter>
<filter id="filter23_f" x="177.904" y="273.649" width="24.0395" height="36.1078" filterUnits="userSpaceOnUse" color-interpolation-filters="sRGB">
<feFlood flood-opacity="0" result="BackgroundImageFix"/>
<feBlend mode="normal" in="SourceGraphic" in2="BackgroundImageFix" result="shape"/>
<feGaussianBlur stdDeviation="1.88656" result="effect1_foregroundBlur"/>
</filter>
<filter id="filter24_f" x="184.674" y="277.44" width="2.09434" height="3.51977" filterUnits="userSpaceOnUse" color-interpolation-filters="sRGB">
<feFlood flood-opacity="0" result="BackgroundImageFix"/>
<feBlend mode="normal" in="SourceGraphic" in2="BackgroundImageFix" result="shape"/>
<feGaussianBlur stdDeviation="0.095927" result="effect1_foregroundBlur"/>
</filter>
<filter id="filter25_f" x="194.049" y="302.003" width="4.38834" height="2.26286" filterUnits="userSpaceOnUse" color-interpolation-filters="sRGB">
<feFlood flood-opacity="0" result="BackgroundImageFix"/>
<feBlend mode="normal" in="SourceGraphic" in2="BackgroundImageFix" result="shape"/>
<feGaussianBlur stdDeviation="0.095927" result="effect1_foregroundBlur"/>
</filter>
<filter id="filter26_f" x="178.025" y="275.209" width="20.9892" height="33.6566" filterUnits="userSpaceOnUse" color-interpolation-filters="sRGB">
<feFlood flood-opacity="0" result="BackgroundImageFix"/>
<feBlend mode="normal" in="SourceGraphic" in2="BackgroundImageFix" result="shape"/>
<feGaussianBlur stdDeviation="1.24705" result="effect1_foregroundBlur"/>
</filter>
<filter id="filter27_i" x="195.553" y="287.949" width="2.30037" height="1.46995" filterUnits="userSpaceOnUse" color-interpolation-filters="sRGB">
<feFlood flood-opacity="0" result="BackgroundImageFix"/>
<feBlend mode="normal" in="SourceGraphic" in2="BackgroundImageFix" result="shape"/>
<feColorMatrix in="SourceAlpha" type="matrix" values="0 0 0 0 0 0 0 0 0 0 0 0 0 0 0 0 0 0 127 0" result="hardAlpha"/>
<feOffset dx="-0.447659" dy="-0.191854"/>
<feComposite in2="hardAlpha" operator="arithmetic" k2="-1" k3="1"/>
<feColorMatrix type="matrix" values="0 0 0 0 0.0823529 0 0 0 0 0.447059 0 0 0 0 0.94902 0 0 0 0.18 0"/>
<feBlend mode="normal" in2="shape" result="effect1_innerShadow"/>
</filter>
<filter id="filter28_i" x="195.553" y="289.245" width="2.30037" height="1.46995" filterUnits="userSpaceOnUse" color-interpolation-filters="sRGB">
<feFlood flood-opacity="0" result="BackgroundImageFix"/>
<feBlend mode="normal" in="SourceGraphic" in2="BackgroundImageFix" result="shape"/>
<feColorMatrix in="SourceAlpha" type="matrix" values="0 0 0 0 0 0 0 0 0 0 0 0 0 0 0 0 0 0 127 0" result="hardAlpha"/>
<feOffset dx="-0.447659" dy="-0.191854"/>
<feComposite in2="hardAlpha" operator="arithmetic" k2="-1" k3="1"/>
<feColorMatrix type="matrix" values="0 0 0 0 0.0823529 0 0 0 0 0.447059 0 0 0 0 0.94902 0 0 0 0.18 0"/>
<feBlend mode="normal" in2="shape" result="effect1_innerShadow"/>
</filter>
<filter id="filter29_i" x="195.553" y="290.54" width="2.30037" height="1.46995" filterUnits="userSpaceOnUse" color-interpolation-filters="sRGB">
<feFlood flood-opacity="0" result="BackgroundImageFix"/>
<feBlend mode="normal" in="SourceGraphic" in2="BackgroundImageFix" result="shape"/>
<feColorMatrix in="SourceAlpha" type="matrix" values="0 0 0 0 0 0 0 0 0 0 0 0 0 0 0 0 0 0 127 0" result="hardAlpha"/>
<feOffset dx="-0.447659" dy="-0.191854"/>
<feComposite in2="hardAlpha" operator="arithmetic" k2="-1" k3="1"/>
<feColorMatrix type="matrix" values="0 0 0 0 0.0823529 0 0 0 0 0.447059 0 0 0 0 0.94902 0 0 0 0.18 0"/>
<feBlend mode="normal" in2="shape" result="effect1_innerShadow"/>
</filter>
<filter id="filter30_i" x="195.553" y="291.836" width="2.30037" height="1.46995" filterUnits="userSpaceOnUse" color-interpolation-filters="sRGB">
<feFlood flood-opacity="0" result="BackgroundImageFix"/>
<feBlend mode="normal" in="SourceGraphic" in2="BackgroundImageFix" result="shape"/>
<feColorMatrix in="SourceAlpha" type="matrix" values="0 0 0 0 0 0 0 0 0 0 0 0 0 0 0 0 0 0 127 0" result="hardAlpha"/>
<feOffset dx="-0.447659" dy="-0.191854"/>
<feComposite in2="hardAlpha" operator="arithmetic" k2="-1" k3="1"/>
<feColorMatrix type="matrix" values="0 0 0 0 0.0823529 0 0 0 0 0.447059 0 0 0 0 0.94902 0 0 0 0.18 0"/>
<feBlend mode="normal" in2="shape" result="effect1_innerShadow"/>
</filter>
<filter id="filter31_i" x="195.553" y="293.132" width="2.30037" height="1.46995" filterUnits="userSpaceOnUse" color-interpolation-filters="sRGB">
<feFlood flood-opacity="0" result="BackgroundImageFix"/>
<feBlend mode="normal" in="SourceGraphic" in2="BackgroundImageFix" result="shape"/>
<feColorMatrix in="SourceAlpha" type="matrix" values="0 0 0 0 0 0 0 0 0 0 0 0 0 0 0 0 0 0 127 0" result="hardAlpha"/>
<feOffset dx="-0.447659" dy="-0.191854"/>
<feComposite in2="hardAlpha" operator="arithmetic" k2="-1" k3="1"/>
<feColorMatrix type="matrix" values="0 0 0 0 0.0823529 0 0 0 0 0.447059 0 0 0 0 0.94902 0 0 0 0.18 0"/>
<feBlend mode="normal" in2="shape" result="effect1_innerShadow"/>
</filter>
<filter id="filter32_i" x="195.553" y="294.428" width="2.30037" height="1.46995" filterUnits="userSpaceOnUse" color-interpolation-filters="sRGB">
<feFlood flood-opacity="0" result="BackgroundImageFix"/>
<feBlend mode="normal" in="SourceGraphic" in2="BackgroundImageFix" result="shape"/>
<feColorMatrix in="SourceAlpha" type="matrix" values="0 0 0 0 0 0 0 0 0 0 0 0 0 0 0 0 0 0 127 0" result="hardAlpha"/>
<feOffset dx="-0.447659" dy="-0.191854"/>
<feComposite in2="hardAlpha" operator="arithmetic" k2="-1" k3="1"/>
<feColorMatrix type="matrix" values="0 0 0 0 0.0823529 0 0 0 0 0.447059 0 0 0 0 0.94902 0 0 0 0.18 0"/>
<feBlend mode="normal" in2="shape" result="effect1_innerShadow"/>
</filter>
<linearGradient id="paint0_linear" x1="260.229" y1="292.875" x2="51.5401" y2="233.202" gradientUnits="userSpaceOnUse">
<stop stop-color="#E9ECEE"/>
<stop offset="0.733878" stop-color="#E9EDEE" stop-opacity="0.69"/>
<stop offset="1" stop-color="#E9ECEE" stop-opacity="0"/>
</linearGradient>
<linearGradient id="paint1_linear" x1="291.461" y1="127.795" x2="393.212" y2="83.2103" gradientUnits="userSpaceOnUse">
<stop stop-color="#E9ECEE"/>
<stop offset="1" stop-color="#F7F8F9" stop-opacity="0"/>
</linearGradient>
<linearGradient id="paint2_linear" x1="319.355" y1="128.594" x2="388.662" y2="98.2249" gradientUnits="userSpaceOnUse">
<stop stop-color="#E9ECEE"/>
<stop offset="1" stop-color="#F7F8F9" stop-opacity="0"/>
</linearGradient>
<linearGradient id="paint3_linear" x1="81.4904" y1="133.093" x2="-20.2602" y2="88.5077" gradientUnits="userSpaceOnUse">
<stop stop-color="#E9ECEE"/>
<stop offset="1" stop-color="#F7F8F9" stop-opacity="0"/>
</linearGradient>
<linearGradient id="paint4_linear" x1="-8.2534" y1="111.554" x2="-113.672" y2="51.901" gradientUnits="userSpaceOnUse">
<stop stop-color="#E9ECEE"/>
<stop offset="1" stop-color="#F7F8F9" stop-opacity="0"/>
</linearGradient>
<linearGradient id="paint5_linear" x1="299.186" y1="281.414" x2="346.861" y2="373.674" gradientUnits="userSpaceOnUse">
<stop stop-color="#E9ECEE"/>
<stop offset="1" stop-color="#F7F8F9" stop-opacity="0"/>
</linearGradient>
<linearGradient id="paint6_linear" x1="302.612" y1="305.804" x2="335.293" y2="369.047" gradientUnits="userSpaceOnUse">
<stop stop-color="#E9ECEE"/>
<stop offset="1" stop-color="#F7F8F9" stop-opacity="0"/>
</linearGradient>
<linearGradient id="paint7_linear" x1="79.0626" y1="286.712" x2="31.3878" y2="378.971" gradientUnits="userSpaceOnUse">
<stop stop-color="#E9ECEE"/>
<stop offset="1" stop-color="#F7F8F9" stop-opacity="0"/>
</linearGradient>
<linearGradient id="paint8_linear" x1="75.9981" y1="308.533" x2="41.7388" y2="374.831" gradientUnits="userSpaceOnUse">
<stop stop-color="#E9ECEE"/>
<stop offset="1" stop-color="#F7F8F9" stop-opacity="0"/>
</linearGradient>
<linearGradient id="paint9_linear" x1="187.945" y1="96.0837" x2="187.091" y2="272.733" gradientUnits="userSpaceOnUse">
<stop stop-color="#8000FF"/>
<stop offset="0.413944" stop-color="#7F52FF"/>
<stop offset="1" stop-color="#00D1FF"/>
</linearGradient>
<linearGradient id="paint10_linear" x1="191.256" y1="238.375" x2="163.004" y2="163.331" gradientUnits="userSpaceOnUse">
<stop stop-color="#DC9F03"/>
<stop offset="1" stop-color="#FABA00"/>
</linearGradient>
<linearGradient id="paint11_linear" x1="160.109" y1="127.041" x2="124.656" y2="63.4177" gradientUnits="userSpaceOnUse">
<stop stop-color="white"/>
<stop offset="1" stop-color="#EDEFF2"/>
</linearGradient>
<linearGradient id="paint12_linear" x1="270.411" y1="127.041" x2="234.958" y2="63.4177" gradientUnits="userSpaceOnUse">
<stop stop-color="white"/>
<stop offset="1" stop-color="#EDEFF2"/>
</linearGradient>
<linearGradient id="paint13_linear" x1="307.167" y1="227.948" x2="271.714" y2="164.324" gradientUnits="userSpaceOnUse">
<stop stop-color="white"/>
<stop offset="1" stop-color="#EDEFF2"/>
</linearGradient>
<linearGradient id="paint14_linear" x1="285.624" y1="210.693" x2="277.503" y2="223.527" gradientUnits="userSpaceOnUse">
<stop stop-color="#FEA30D"/>
<stop offset="0.137983" stop-color="#FFBC57"/>
<stop offset="0.854529" stop-color="#FD6C1A"/>
<stop offset="1" stop-color="#FD6A1A"/>
</linearGradient>
<linearGradient id="paint15_linear" x1="281.259" y1="209.619" x2="275.451" y2="217.852" gradientUnits="userSpaceOnUse">
<stop offset="0.0662217" stop-color="#FD6B1A"/>
<stop offset="1" stop-color="#FEA40D"/>
</linearGradient>
<linearGradient id="paint16_linear" x1="289.801" y1="201.636" x2="273.852" y2="219.291" gradientUnits="userSpaceOnUse">
<stop stop-color="#FBC56C"/>
<stop offset="1" stop-color="#FD8514"/>
</linearGradient>
<linearGradient id="paint17_linear" x1="283.534" y1="217.11" x2="279.457" y2="213.439" gradientUnits="userSpaceOnUse">
<stop stop-color="#FD8215"/>
<stop offset="0.528057" stop-color="#DAA60C" stop-opacity="0"/>
</linearGradient>
<linearGradient id="paint18_linear" x1="278.654" y1="222.947" x2="276.442" y2="221.786" gradientUnits="userSpaceOnUse">
<stop offset="0.159539" stop-color="#ADC1D7"/>
<stop offset="0.581247" stop-color="#E0E7EF"/>
<stop offset="1" stop-color="#FDFDFE"/>
</linearGradient>
<linearGradient id="paint19_linear" x1="277.672" y1="220.773" x2="274.632" y2="227.216" gradientUnits="userSpaceOnUse">
<stop offset="0.056488" stop-color="#FBB251"/>
<stop offset="0.454877" stop-color="#E0E7EF" stop-opacity="0"/>
<stop offset="1" stop-color="#FDFDFE" stop-opacity="0"/>
</linearGradient>
<linearGradient id="paint20_linear" x1="276.921" y1="228.556" x2="273.466" y2="226.891" gradientUnits="userSpaceOnUse">
<stop stop-color="#CED8E4"/>
<stop offset="0.491169" stop-color="#DFE6EE"/>
<stop offset="0.911857" stop-color="#F8F8FE"/>
</linearGradient>
<linearGradient id="paint21_linear" x1="278.551" y1="219.516" x2="273.466" y2="226.891" gradientUnits="userSpaceOnUse">
<stop stop-color="#FFD535"/>
<stop offset="0.877225" stop-color="#DFE6EE" stop-opacity="0"/>
<stop offset="1" stop-color="#FDFDFE" stop-opacity="0"/>
</linearGradient>
<linearGradient id="paint22_linear" x1="272.464" y1="234.047" x2="269.666" y2="234.186" gradientUnits="userSpaceOnUse">
<stop stop-color="#BEC9D6"/>
<stop offset="1" stop-color="#EBEEF1"/>
</linearGradient>
<linearGradient id="paint23_linear" x1="285.772" y1="206.768" x2="274.655" y2="219.845" gradientUnits="userSpaceOnUse">
<stop stop-color="#FFFBDF"/>
<stop offset="1" stop-color="#FFEB28" stop-opacity="0"/>
</linearGradient>
<linearGradient id="paint24_linear" x1="216.301" y1="297.698" x2="180.848" y2="234.075" gradientUnits="userSpaceOnUse">
<stop stop-color="white"/>
<stop offset="1" stop-color="#EDEFF2"/>
</linearGradient>
<linearGradient id="paint25_linear" x1="122.648" y1="227.979" x2="87.1947" y2="164.355" gradientUnits="userSpaceOnUse">
<stop stop-color="white"/>
<stop offset="1" stop-color="#EDEFF2"/>
</linearGradient>
<linearGradient id="paint26_linear" x1="143.08" y1="125.234" x2="119.208" y2="125.119" gradientUnits="userSpaceOnUse">
<stop stop-color="#CED8E4"/>
<stop offset="0.665987" stop-color="white"/>
<stop offset="0.800848" stop-color="white"/>
<stop offset="1" stop-color="#BDCDDE"/>
</linearGradient>
<radialGradient id="paint27_radial" cx="0" cy="0" r="1" gradientUnits="userSpaceOnUse" gradientTransform="translate(129.2 122.09) rotate(-176.607) scale(14.5626 15.1579)">
<stop stop-color="#44D049" stop-opacity="0.21"/>
<stop offset="0.968694" stop-color="#44D049" stop-opacity="0"/>
</radialGradient>
<linearGradient id="paint28_linear" x1="160.521" y1="105.998" x2="125.304" y2="113.078" gradientUnits="userSpaceOnUse">
<stop stop-color="#C4D2E1"/>
<stop offset="1" stop-color="#FCFDFE"/>
</linearGradient>
<linearGradient id="paint29_linear" x1="143.08" y1="125.234" x2="119.208" y2="125.119" gradientUnits="userSpaceOnUse">
<stop stop-color="#CED8E4"/>
<stop offset="0.665987" stop-color="#FDFDFE"/>
<stop offset="0.800848" stop-color="#FDFDFE"/>
<stop offset="1" stop-color="#BDCDDE"/>
</linearGradient>
<linearGradient id="paint30_linear" x1="145.496" y1="120.883" x2="121.852" y2="121.412" gradientUnits="userSpaceOnUse">
<stop stop-color="#6AEB6E"/>
<stop offset="0.0805294" stop-color="#10D414"/>
<stop offset="0.791522" stop-color="#78EF7A"/>
<stop offset="0.907232" stop-color="#77EF7A"/>
<stop offset="1" stop-color="#3AC43F"/>
</linearGradient>
<linearGradient id="paint31_linear" x1="145.7" y1="120.481" x2="122.319" y2="121.405" gradientUnits="userSpaceOnUse">
<stop stop-color="white"/>
<stop offset="0.193368" stop-color="#10D414"/>
<stop offset="0.791522" stop-color="#A4F4A6"/>
<stop offset="0.907232" stop-color="#A9F4AB"/>
<stop offset="1" stop-color="#3AC43F"/>
</linearGradient>
<linearGradient id="paint32_linear" x1="123.051" y1="121.977" x2="144.451" y2="120.952" gradientUnits="userSpaceOnUse">
<stop stop-color="#3ACC3F"/>
<stop offset="0.123246" stop-color="#3ACC3F" stop-opacity="0"/>
<stop offset="0.912857" stop-color="#3ACC3F" stop-opacity="0.118365"/>
<stop offset="1" stop-color="#3ACC3F"/>
</linearGradient>
<linearGradient id="paint33_linear" x1="144.562" y1="120.729" x2="122.539" y2="121.143" gradientUnits="userSpaceOnUse">
<stop stop-color="#6AEB6E"/>
<stop offset="0.110357" stop-color="#10D414"/>
<stop offset="0.791522" stop-color="#78EF7A"/>
<stop offset="0.907232" stop-color="#77EF7A"/>
<stop offset="1" stop-color="#3AC43F"/>
</linearGradient>
<linearGradient id="paint34_linear" x1="140.296" y1="110.488" x2="126.551" y2="109.786" gradientUnits="userSpaceOnUse">
<stop stop-color="#FBFCFE"/>
<stop offset="1" stop-color="#CAD6E3"/>
</linearGradient>
<linearGradient id="paint35_linear" x1="140.296" y1="110.488" x2="126.551" y2="109.786" gradientUnits="userSpaceOnUse">
<stop stop-color="#FBFCFE"/>
<stop offset="1" stop-color="#CAD6E3"/>
</linearGradient>
<linearGradient id="paint36_linear" x1="228.731" y1="120.79" x2="255.21" y2="119.603" gradientUnits="userSpaceOnUse">
<stop stop-color="#FDFDFE"/>
<stop offset="0.390246" stop-color="#F0F3F7"/>
<stop offset="0.555705" stop-color="#DEE5EC"/>
<stop offset="1" stop-color="#D3DBE3"/>
</linearGradient>
<linearGradient id="paint37_linear" x1="228.731" y1="120.79" x2="255.21" y2="119.603" gradientUnits="userSpaceOnUse">
<stop stop-color="#FDFDFE"/>
<stop offset="0.390246" stop-color="#F0F3F7"/>
<stop offset="0.555705" stop-color="#DEE5EC"/>
<stop offset="1" stop-color="#D3DBE3"/>
</linearGradient>
<linearGradient id="paint38_linear" x1="229.723" y1="120.755" x2="257.672" y2="121.407" gradientUnits="userSpaceOnUse">
<stop stop-color="#BF4BE2"/>
<stop offset="0.110593" stop-color="#EB8BFF"/>
<stop offset="0.152394" stop-color="#E989FE"/>
<stop offset="0.193774" stop-color="#E888FD"/>
<stop offset="0.258058" stop-color="#D361F0"/>
<stop offset="0.44857" stop-color="#D666F1"/>
<stop offset="0.539289" stop-color="#AB5CC1"/>
<stop offset="0.807053" stop-color="#BE4AE2"/>
<stop offset="1" stop-color="#E798FA"/>
</linearGradient>
<linearGradient id="paint39_linear" x1="231.471" y1="123.727" x2="256.911" y2="122.901" gradientUnits="userSpaceOnUse">
<stop stop-color="#FDFDFE"/>
<stop offset="0.400649" stop-color="#F0F3F7"/>
<stop offset="0.526485" stop-color="#DFE5ED"/>
<stop offset="1" stop-color="#DAE2EB"/>
</linearGradient>
<linearGradient id="paint40_linear" x1="231.471" y1="123.727" x2="256.911" y2="122.901" gradientUnits="userSpaceOnUse">
<stop stop-color="#FDFDFE"/>
<stop offset="0.400649" stop-color="#F0F3F7"/>
<stop offset="0.526485" stop-color="#DFE5ED"/>
<stop offset="1" stop-color="#DAE2EB"/>
</linearGradient>
<linearGradient id="paint41_linear" x1="229.723" y1="120.755" x2="257.672" y2="121.407" gradientUnits="userSpaceOnUse">
<stop stop-color="#BF4BE2"/>
<stop offset="0.127491" stop-color="#EB8BFF"/>
<stop offset="0.258058" stop-color="#D361F0"/>
<stop offset="0.44857" stop-color="#D666F1"/>
<stop offset="0.539289" stop-color="#AB5CC1"/>
<stop offset="0.807053" stop-color="#BE4AE2"/>
<stop offset="1" stop-color="#E798FA"/>
</linearGradient>
<linearGradient id="paint42_linear" x1="255.759" y1="122.612" x2="231.195" y2="122.898" gradientUnits="userSpaceOnUse">
<stop stop-color="#BA46DF"/>
<stop offset="0.160041" stop-color="#BA46DF" stop-opacity="0"/>
<stop offset="0.853021" stop-color="#BA46DF" stop-opacity="0"/>
<stop offset="1" stop-color="#BA46DF"/>
</linearGradient>
<linearGradient id="paint43_linear" x1="267.73" y1="100.005" x2="228.557" y2="110.734" gradientUnits="userSpaceOnUse">
<stop stop-color="#DAE2EB"/>
<stop offset="0.998094" stop-color="white"/>
</linearGradient>
<linearGradient id="paint44_linear" x1="228.007" y1="110.68" x2="250.979" y2="107.236" gradientUnits="userSpaceOnUse">
<stop stop-color="#DAE2EB"/>
<stop offset="0.998094" stop-color="white"/>
</linearGradient>
<linearGradient id="paint45_linear" x1="92.7749" y1="205.187" x2="106.189" y2="212.269" gradientUnits="userSpaceOnUse">
<stop stop-color="#FBFBFD"/>
<stop offset="0.870249" stop-color="#EBEFF4"/>
<stop offset="0.994115" stop-color="#E8ECF2"/>
</linearGradient>
<linearGradient id="paint46_linear" x1="99.511" y1="197.62" x2="101.983" y2="238.806" gradientUnits="userSpaceOnUse">
<stop offset="0.437974" stop-color="#FDFDFE"/>
<stop offset="1" stop-color="#E5EBF2"/>
</linearGradient>
<linearGradient id="paint47_linear" x1="99.511" y1="197.62" x2="101.983" y2="238.806" gradientUnits="userSpaceOnUse">
<stop offset="0.437974" stop-color="#FDFDFE"/>
<stop offset="1" stop-color="#E5EBF2"/>
</linearGradient>
<linearGradient id="paint48_linear" x1="87.9965" y1="207.366" x2="101.207" y2="214.923" gradientUnits="userSpaceOnUse">
<stop stop-color="#FE758A"/>
<stop offset="0.870249" stop-color="#FB5A72"/>
<stop offset="0.994115" stop-color="#FB4059"/>
</linearGradient>
<linearGradient id="paint49_linear" x1="100.356" y1="212.778" x2="101.285" y2="213.356" gradientUnits="userSpaceOnUse">
<stop stop-color="#FF4E65"/>
<stop offset="1" stop-color="#FB4059"/>
</linearGradient>
<linearGradient id="paint50_linear" x1="94.529" y1="232.829" x2="90.5997" y2="212.472" gradientUnits="userSpaceOnUse">
<stop stop-color="#FB364F"/>
<stop offset="1" stop-color="#FB5770"/>
</linearGradient>
<linearGradient id="paint51_linear" x1="99.6581" y1="214.543" x2="88.9944" y2="209.071" gradientUnits="userSpaceOnUse">
<stop stop-color="#FB4059"/>
<stop offset="1" stop-color="#FF4D65"/>
</linearGradient>
<linearGradient id="paint52_linear" x1="90.7466" y1="210.045" x2="90.9308" y2="213.552" gradientUnits="userSpaceOnUse">
<stop stop-color="#FF4D65"/>
<stop offset="1" stop-color="#FF4D65" stop-opacity="0"/>
</linearGradient>
<linearGradient id="paint53_linear" x1="83.1098" y1="209.845" x2="96.5242" y2="216.927" gradientUnits="userSpaceOnUse">
<stop stop-color="#FBFBFD"/>
<stop offset="0.870249" stop-color="#EBEFF4"/>
<stop offset="0.994115" stop-color="#E8ECF2"/>
</linearGradient>
<linearGradient id="paint54_linear" x1="89.8455" y1="202.278" x2="92.3178" y2="243.464" gradientUnits="userSpaceOnUse">
<stop offset="0.437974" stop-color="#FDFDFE"/>
<stop offset="1" stop-color="#E5EBF2"/>
</linearGradient>
<linearGradient id="paint55_linear" x1="119.741" y1="217.119" x2="84.8814" y2="233.924" gradientUnits="userSpaceOnUse">
<stop stop-color="#DAE2EB"/>
<stop offset="0.998094" stop-color="white"/>
</linearGradient>
<linearGradient id="paint56_linear" x1="90.3361" y1="227.915" x2="111.415" y2="227.915" gradientUnits="userSpaceOnUse">
<stop stop-color="#FB5770"/>
<stop offset="0.160911" stop-color="#FB364F"/>
<stop offset="0.770399" stop-color="#FB364F"/>
<stop offset="0.842505" stop-color="#FB2B44"/>
</linearGradient>
<linearGradient id="paint57_linear" x1="78.5318" y1="227.915" x2="109.632" y2="226.207" gradientUnits="userSpaceOnUse">
<stop stop-color="#FDFDFE"/>
<stop offset="0.400649" stop-color="#F0F3F7"/>
<stop offset="0.526485" stop-color="#DFE5ED"/>
<stop offset="1" stop-color="#DAE2EB"/>
</linearGradient>
<linearGradient id="paint58_linear" x1="199.53" y1="282.728" x2="199.7" y2="285.549" gradientUnits="userSpaceOnUse">
<stop stop-color="#EBEFF4"/>
<stop offset="1" stop-color="#D2DDE8"/>
</linearGradient>
<linearGradient id="paint59_linear" x1="191.438" y1="318.029" x2="188.148" y2="262.708" gradientUnits="userSpaceOnUse">
<stop offset="0.437974" stop-color="#FDFDFE"/>
<stop offset="1" stop-color="#E5EBF2"/>
</linearGradient>
<linearGradient id="paint60_linear" x1="193.848" y1="276.584" x2="197.805" y2="295.923" gradientUnits="userSpaceOnUse">
<stop offset="0.306231" stop-color="#13C2FB"/>
<stop offset="1" stop-color="#1599F7"/>
</linearGradient>
<linearGradient id="paint61_linear" x1="187.871" y1="275.927" x2="196.541" y2="292.906" gradientUnits="userSpaceOnUse">
<stop stop-color="#13C2FB"/>
<stop offset="0.287449" stop-color="#11BDFA"/>
<stop offset="0.561939" stop-color="#10B9FA"/>
<stop offset="1" stop-color="#1599F7"/>
</linearGradient>
<linearGradient id="paint62_linear" x1="187.871" y1="275.927" x2="196.541" y2="292.906" gradientUnits="userSpaceOnUse">
<stop stop-color="#13C2FB"/>
<stop offset="0.287449" stop-color="#11BDFA"/>
<stop offset="0.561939" stop-color="#10B9FA"/>
<stop offset="1" stop-color="#1599F7"/>
</linearGradient>
<linearGradient id="paint63_linear" x1="183.579" y1="277.492" x2="183.579" y2="280.633" gradientUnits="userSpaceOnUse">
<stop stop-color="#4ACEFF"/>
<stop offset="1" stop-color="#4ACEFF" stop-opacity="0"/>
</linearGradient>
<linearGradient id="paint64_linear" x1="198.17" y1="302.408" x2="183.541" y2="277.296" gradientUnits="userSpaceOnUse">
<stop stop-color="#128AF6"/>
<stop offset="1" stop-color="#2AB6F4"/>
</linearGradient>
<linearGradient id="paint65_linear" x1="193.848" y1="276.584" x2="197.805" y2="295.923" gradientUnits="userSpaceOnUse">
<stop offset="0.306231" stop-color="#13C2FB"/>
<stop offset="1" stop-color="#1599F7"/>
</linearGradient>
<linearGradient id="paint66_linear" x1="194.392" y1="285.271" x2="194.694" y2="286.93" gradientUnits="userSpaceOnUse">
<stop stop-color="#E7EEF4"/>
<stop offset="1" stop-color="#CAD4DF"/>
</linearGradient>
<linearGradient id="paint67_linear" x1="186.298" y1="320.572" x2="175.562" y2="266.825" gradientUnits="userSpaceOnUse">
<stop offset="0.295365" stop-color="#FDFDFE"/>
<stop offset="1" stop-color="#E5EBF2"/>
</linearGradient>
<linearGradient id="paint68_linear" x1="195.238" y1="289.008" x2="198.181" y2="288.145" gradientUnits="userSpaceOnUse">
<stop stop-color="#1596F7"/>
<stop offset="1" stop-color="#13C2FB"/>
</linearGradient>
<linearGradient id="paint69_linear" x1="195.553" y1="290.235" x2="198.181" y2="289.441" gradientUnits="userSpaceOnUse">
<stop stop-color="#1596F7"/>
<stop offset="1" stop-color="#13C2FB"/>
</linearGradient>
<linearGradient id="paint70_linear" x1="195.553" y1="291.522" x2="198.181" y2="290.737" gradientUnits="userSpaceOnUse">
<stop stop-color="#1090F6"/>
<stop offset="1" stop-color="#13C2FB"/>
</linearGradient>
<linearGradient id="paint71_linear" x1="195.238" y1="292.896" x2="199.332" y2="292.001" gradientUnits="userSpaceOnUse">
<stop stop-color="#108FF6"/>
<stop offset="1" stop-color="#13C2FB"/>
</linearGradient>
<linearGradient id="paint72_linear" x1="195.201" y1="294.538" x2="199.621" y2="293.125" gradientUnits="userSpaceOnUse">
<stop stop-color="#1089F5"/>
<stop offset="1" stop-color="#13C2FB"/>
</linearGradient>
<linearGradient id="paint73_linear" x1="196.267" y1="294.993" x2="198.529" y2="294.038" gradientUnits="userSpaceOnUse">
<stop stop-color="#1089F5"/>
<stop offset="1" stop-color="#13C2FB"/>
</linearGradient>
<linearGradient id="paint74_linear" x1="177.908" y1="290.013" x2="200.042" y2="290.777" gradientUnits="userSpaceOnUse">
<stop stop-color="#D8DFE8"/>
<stop offset="1" stop-color="#FDFDFE"/>
</linearGradient>
<linearGradient id="paint75_linear" x1="196.557" y1="290.647" x2="179.717" y2="290.924" gradientUnits="userSpaceOnUse">
<stop stop-color="#F2F5F8"/>
<stop offset="0.907209" stop-color="#FDFDFE"/>
</linearGradient>
<linearGradient id="paint76_linear" x1="185.578" y1="294.575" x2="189.465" y2="302.307" gradientUnits="userSpaceOnUse">
<stop stop-color="#E0E7EF"/>
<stop offset="1" stop-color="#EEF1F5"/>
</linearGradient>
<linearGradient id="paint77_linear" x1="184.927" y1="294.155" x2="190.075" y2="304.303" gradientUnits="userSpaceOnUse">
<stop stop-color="#EBEFF4"/>
<stop offset="1" stop-color="#FDFDFE"/>
</linearGradient>
<clipPath id="clip0">
<rect width="554" height="441.434" fill="white" transform="translate(-146)"/>
</clipPath>
</defs>
</svg>

