<svg height='100px' width='100px'  fill="#ffffff" xmlns:dc="http://purl.org/dc/elements/1.1/" xmlns:cc="http://creativecommons.org/ns#" xmlns:rdf="http://www.w3.org/1999/02/22-rdf-syntax-ns#" xmlns:svg="http://www.w3.org/2000/svg" xmlns:sodipodi="http://sodipodi.sourceforge.net/DTD/sodipodi-0.dtd" xmlns:inkscape="http://www.inkscape.org/namespaces/inkscape" xmlns="http://www.w3.org/2000/svg" xmlns:xlink="http://www.w3.org/1999/xlink" version="1.1" x="0px" y="0px" viewBox="2268.5 0.5 64 64" enable-background="new 2268.5 0.5 64 64" xml:space="preserve"><g transform="translate(0,-279.80207)"><path d="M2300.5,283.8c-15.729,0-28.502,12.773-28.502,28.502s12.773,28.502,28.502,28.502   s28.502-12.773,28.502-28.502S2316.229,283.8,2300.5,283.8z M2300.5,285.8c14.646,0,26.502,11.854,26.502,26.502   s-11.855,26.5-26.502,26.5c-14.648,0-26.5-11.853-26.5-26.5S2285.852,285.8,2300.5,285.8z M2294.203,301.82   c-0.551,0.043-0.963,0.524-0.92,1.075c0.039,0.482,0.416,0.868,0.898,0.917l12.441,0.777l-15.408,15.396   c-0.4,0.383-0.414,1.018-0.031,1.417c0.381,0.399,1.016,0.414,1.416,0.031c0.01-0.01,0.021-0.021,0.031-0.03l15.412-15.398   l0.799,12.77c0.008,0.553,0.463,0.992,1.016,0.983s0.992-0.464,0.984-1.017c-0.002-0.03-0.004-0.061-0.006-0.092l-0.916-14.635   c0.148-0.511-0.129-1.049-0.631-1.225c-0.002,0-0.004-0.002-0.006-0.002c-0.053-0.02-0.105-0.035-0.16-0.047   c-0.002,0-0.002,0-0.002,0c-0.021-0.005-0.045-0.009-0.066-0.012c-0.021-0.004-0.043-0.006-0.063-0.008c-0.002,0-0.002,0-0.002,0   c-0.057-0.006-0.113-0.006-0.17-0.002c-0.008,0.001-0.016,0.002-0.023,0.004l-14.49-0.904   C2294.271,301.818,2294.236,301.818,2294.203,301.82z"></path></g></svg>