<?xml version="1.0" encoding="UTF-8"?>
<svg width="500px" height="500px" viewBox="0 0 500 500" version="1.1" xmlns="http://www.w3.org/2000/svg" xmlns:xlink="http://www.w3.org/1999/xlink">
    <title>atlas2</title>
    <g id="atlas2" stroke="none" stroke-width="1" fill="none" fill-rule="evenodd">
        <g id="Group" transform="translate(175.000000, 145.000000)"></g>
        <g id="noun_Atlas_1110026" fill-rule="nonzero">
            <rect id="Rectangle" fill="#000000" x="0" y="0" width="500" height="500"></rect>
            <g id="Shape" transform="translate(136.150000, 94.300000)" fill="#FFC802">
                <path d="M195.96,169.845 C211.14,151.215 219.075,128.445 219.075,104.295 C219.075,46.68 172.5,0.105 114.885,0.105 L114.885,0.105 C57.615,0.105 10.695,47.025 11.04,104.295 C11.04,130.515 20.7,154.32 36.915,172.605 C34.5,173.295 32.43,174.675 30.36,176.745 C23.115,183.99 23.46,195.03 31.74,202.965 L31.74,203.31 C35.88,207.45 42.09,213.66 55.2,221.25 C60.72,224.7 65.205,227.115 68.31,228.495 C66.93,230.22 65.205,232.29 62.79,235.05 C53.13,246.435 53.82,255.75 55.89,261.615 C55.89,261.615 55.89,261.96 56.235,261.96 C54.165,263.685 50.025,266.445 42.78,269.55 C36.225,272.31 20.355,275.76 15.525,276.45 C10.005,277.485 5.175,280.245 2.415,284.385 C0.345,287.49 -0.345,291.285 0.69,295.08 C2.76,303.015 10.005,306.81 22.08,306.81 C31.74,306.81 66.93,299.91 87.975,278.865 C87.975,278.865 87.975,278.865 87.975,278.865 C97.98,278.52 111.09,276.795 118.335,275.76 C119.715,290.25 121.095,302.325 127.995,308.19 C130.755,310.26 133.86,311.64 137.31,311.64 C137.655,311.64 138.345,311.64 138.69,311.64 C157.32,309.915 155.595,289.56 154.215,273 C153.18,259.2 150.075,249.885 145.59,245.4 C141.795,241.605 136.275,239.88 130.065,238.845 C131.445,237.81 132.825,236.43 133.86,235.395 L133.86,235.395 C137.31,236.775 140.76,237.465 144.9,237.465 C158.01,237.465 169.05,228.84 172.845,217.11 C193.2,206.07 202.86,197.1 204.93,188.13 C205.62,184.68 205.62,179.505 201.135,173.985 C199.755,171.915 198.03,170.535 195.96,169.845 Z M21.39,295.77 C14.835,295.77 11.385,294.735 10.695,292.32 C10.35,291.63 10.695,290.94 11.04,290.25 C11.73,289.215 13.8,287.835 16.905,287.145 C20.7,286.455 38.295,283.005 46.23,279.555 C53.82,276.45 58.65,273.345 61.755,270.93 C64.86,273.69 68.655,276.105 72.105,277.14 C54.51,290.25 29.67,295.77 21.39,295.77 Z M137.655,252.645 C139.725,254.715 142.14,261.615 142.83,273.345 C144.9,297.495 141.795,299.565 137.31,299.91 C135.93,299.91 135.24,299.565 134.55,299.22 C130.41,295.77 129.375,281.28 128.34,268.86 L128.34,268.515 C128.34,267.135 127.305,265.41 126.27,264.72 C125.235,263.685 123.51,263.34 122.13,263.685 C108.675,265.755 84.525,268.515 77.97,267.135 C74.175,266.445 67.965,262.995 65.895,257.475 C64.17,252.99 65.895,247.815 70.725,241.95 C78.66,232.29 80.73,229.875 81.075,229.53 C82.11,228.15 82.455,226.425 82.11,224.7 C81.765,222.975 80.385,221.595 79.005,221.25 C79.005,221.25 73.14,218.49 60.72,211.245 C48.99,204.345 43.47,198.825 39.675,194.685 L39.33,194.685 C37.605,192.96 33.81,188.13 37.95,183.99 C41.4,180.54 46.92,183.3 48.99,184.335 L48.99,184.335 C48.99,184.335 48.99,184.335 48.99,184.335 C66.93,199.17 90.045,208.14 114.885,208.14 L115.23,208.14 C115.23,216.075 118.68,223.665 124.2,228.84 C119.37,233.325 109.365,237.465 103.155,239.535 C103.155,239.535 103.155,239.535 102.81,239.535 C102.81,239.535 102.465,239.535 102.465,239.88 C102.465,239.88 102.12,240.225 102.12,240.225 C102.12,240.225 101.775,240.57 101.775,240.57 C101.775,240.57 101.43,240.915 101.43,240.915 C101.43,240.915 101.085,241.26 101.085,241.26 C101.085,241.26 100.74,241.605 100.74,241.605 C100.74,241.605 100.74,241.95 100.395,241.95 C100.395,241.95 100.395,242.295 100.05,242.295 C100.05,242.64 100.05,242.64 99.705,242.64 C99.705,242.64 99.705,242.985 99.705,243.33 C99.705,243.33 99.705,243.675 99.705,243.675 C99.705,244.02 99.705,244.02 99.705,244.365 L99.705,245.4 C99.705,245.745 99.705,245.745 99.705,246.09 L99.705,246.09 C99.705,246.09 99.705,246.435 99.705,246.435 C99.705,246.435 99.705,246.78 99.705,246.78 C99.705,246.78 99.705,246.78 99.705,246.78 C100.05,247.125 100.05,247.815 100.395,248.16 C100.395,248.16 100.395,248.16 100.74,248.505 C101.085,248.85 101.43,249.195 101.775,249.54 C101.775,249.54 101.775,249.54 101.775,249.54 C102.12,249.885 102.465,249.885 103.155,250.23 C103.155,250.23 103.5,250.23 103.5,250.23 C103.845,250.23 104.535,250.575 104.88,250.575 L104.88,250.575 C105.225,250.575 105.57,250.575 105.915,250.575 C116.61,248.505 132.825,248.16 137.655,252.645 Z M145.245,189.51 C147.315,189.51 149.385,189.855 151.11,190.545 C155.25,191.925 158.7,194.685 160.77,198.135 C162.495,200.895 163.53,204.345 163.53,207.795 C163.185,208.485 163.185,208.83 163.185,209.52 C162.84,213.66 161.115,217.455 158.355,220.215 C154.905,224.01 150.075,226.08 144.9,226.08 C135.004945,226.08 126.797186,217.980978 126.617991,208.124202 L126.615,207.795 L126.615,205.725 L126.615,205.725 C126.96,202.275 128.34,198.825 130.755,196.41 C133.515,192.96 137.655,190.545 142.485,189.855 C142.873125,189.855 143.212734,189.806484 143.540215,189.74584 L144.189785,189.61916 C144.517266,189.558516 144.856875,189.51 145.245,189.51 Z M123.83635,47.147275 C144.217225,47.147275 160.7962,63.727975 160.7962,84.107125 C160.7962,85.83385 160.653025,87.53815 160.42015,89.223475 C160.756525,89.2114 161.08945,89.18725 161.425825,89.18725 C176.61445,89.18725 188.970625,101.5555 188.97235,116.7562 C188.97235,131.94655 176.616175,144.302725 161.42755,144.302725 L161.42755,144.302725 L70.501075,144.302725 C50.363425,144.302725 33.9811,127.93075 33.9811,107.8069 C33.9811,87.66925 50.363425,71.286925 70.501075,71.286925 C76.60585,71.286925 82.564,72.846325 87.854575,75.71155 C91.6168,59.21365 106.225825,47.147275 123.83635,47.147275 Z M194.235,185.37 C193.2,190.2 186.3,196.065 173.88,203.655 C173.19,199.86 171.81,196.065 170.085,192.615 C173.19,190.545 176.295,188.475 179.4,186.06 C179.745,186.06 180.09,185.715 180.09,185.37 C180.435,185.025 180.78,184.68 181.47,184.335 C181.47,184.335 181.47,184.335 181.815,184.335 C184.575,182.265 188.715,179.85 191.475,179.85 C192.165,179.85 192.51,180.195 192.855,180.54 C194.58,182.955 194.235,184.335 194.235,185.37 Z"></path>
            </g>
        </g>
    </g>
</svg>